<svg width="3840" height="94" viewBox="0 0 3840 94" fill="none" xmlns="http://www.w3.org/2000/svg">
<g clip-path="url(#clip0_250_93)">
<rect width="3840" height="94" fill="#292524"/>
<g clip-path="url(#clip1_250_93)">
<path d="M3836 125L3860 101M20 -43L104 41L20 -43ZM116 53L140 77L116 53ZM152 89L188 125L152 89ZM56 -31L68 -19L56 -31ZM80 -7L104 17L80 -7ZM116 29L128 41L116 29ZM140 53L152 65L140 53ZM200 113L212 125L200 113ZM80 -31L92 -19L80 -31ZM128 17L212 101L128 17ZM104 -31L116 -19L104 -31ZM128 -7L188 53L128 -7ZM200 65L260 125L200 65ZM140 -43L152 -31L140 -43ZM176 -7L200 17L176 -7ZM224 41L248 65L224 41ZM260 77L272 89L260 77ZM164 -43L332 125L164 -43ZM200 -31L248 17L200 -31ZM272 41L320 89L272 41ZM236 -43L260 -19L236 -43ZM272 -7L284 5L272 -7ZM296 17L308 29L296 17ZM320 41L332 53L320 41ZM344 65L368 89L344 65ZM392 113L404 125L392 113ZM260 -43L296 -7L260 -43ZM308 5L368 65L308 5ZM380 77L392 89L380 77ZM248 -7L260 5L248 -7ZM272 17L380 125L272 17ZM308 -43L476 125L308 -43ZM-4 -43L8 -31L-4 -43ZM56 17L68 29L56 17ZM80 41L104 65L80 41ZM128 89L152 113L128 89ZM-4 29L44 77L-4 29ZM56 89L68 101L56 89ZM80 113L92 125L80 113ZM8 89L44 125L8 89ZM-4 -19L32 17L-4 -19ZM44 29L68 53L44 29ZM92 77L116 101L92 77ZM-4 5L8 17L-4 5ZM20 29L32 41L20 29ZM80 89L92 101L80 89ZM104 113L116 125L104 113ZM8 65L20 77L8 65ZM32 89L44 101L32 89ZM56 113L68 125L56 113ZM200 41L212 53L200 41ZM224 65L248 89L224 65ZM260 101L284 125L260 101ZM308 -19L320 -7L308 -19ZM332 5L344 17L332 5ZM356 29L368 41L356 29ZM380 53L392 65L380 53ZM416 89L440 113L416 89ZM596 -43L764 125L596 -43ZM452 -43L488 -7L452 -43ZM500 5L524 29L500 5ZM548 53L560 65L548 53ZM584 89L620 125L584 89ZM380 -43L440 17L380 -43ZM452 29L500 77L452 29ZM512 89L536 113L512 89ZM428 -19L572 125L428 -19ZM428 -43L440 -31L428 -43ZM488 17L500 29L488 17ZM512 41L524 53L512 41ZM536 65L560 89L536 65ZM488 -31L512 -7L488 -31ZM536 17L560 41L536 17ZM584 65L596 77L584 65ZM608 89L620 101L608 89ZM548 -43L560 -31L548 -43ZM572 -19L608 17L572 -19ZM620 29L644 53L620 29ZM668 77L680 89L668 77ZM368 -7L380 5L368 -7ZM392 17L416 41L392 17ZM440 65L464 89L440 65ZM488 113L500 125L488 113ZM524 -19L548 5L524 -19ZM572 29L620 77L572 29ZM632 89L668 125L632 89ZM524 -43L536 -31L524 -43ZM548 -19L560 -7L548 -19ZM572 5L584 17L572 5ZM596 29L608 41L596 29ZM644 77L656 89L644 77ZM668 101L692 125L668 101ZM572 -43L584 -31L572 -43ZM632 17L644 29L632 17ZM656 41L668 53L656 41ZM680 65L728 113L680 65ZM356 -43L380 -19L356 -43ZM392 -7L416 17L392 -7ZM428 29L440 41L428 29ZM488 89L500 101L488 89ZM1172 -43L1256 41L1172 -43ZM1268 53L1292 77L1268 53ZM1304 89L1340 125L1304 89ZM1028 -43L1064 -7L1028 -43ZM1076 5L1100 29L1076 5ZM1124 53L1136 65L1124 53ZM1160 89L1196 125L1160 89ZM884 -43L1052 125L884 -43ZM956 -43L1016 17L956 -43ZM1028 29L1076 77L1028 29ZM1088 89L1112 113L1088 89ZM1004 -19L1148 125L1004 -19ZM1004 -43L1016 -31L1004 -43ZM1064 17L1076 29L1064 17ZM1088 41L1100 53L1088 41ZM1112 65L1136 89L1112 65ZM1064 -31L1088 -7L1064 -31ZM1112 17L1136 41L1112 17ZM1160 65L1172 77L1160 65ZM1184 89L1196 101L1184 89ZM1208 113L1220 125L1208 113ZM1124 -43L1136 -31L1124 -43ZM1148 -19L1184 17L1148 -19ZM1196 29L1220 53L1196 29ZM1244 77L1268 101L1244 77ZM944 -7L956 5L944 -7ZM968 17L992 41L968 17ZM1016 65L1040 89L1016 65ZM1064 113L1076 125L1064 113ZM1100 -19L1124 5L1100 -19ZM1148 29L1196 77L1148 29ZM1208 89L1220 101L1208 89ZM1232 113L1244 125L1232 113ZM1100 -43L1112 -31L1100 -43ZM1124 -19L1136 -7L1124 -19ZM1148 5L1160 17L1148 5ZM1172 29L1184 41L1172 29ZM1232 89L1244 101L1232 89ZM1256 113L1268 125L1256 113ZM1148 -43L1160 -31L1148 -43ZM1208 17L1220 29L1208 17ZM1232 41L1256 65L1232 41ZM1280 89L1304 113L1280 89ZM932 -43L956 -19L932 -43ZM968 -7L992 17L968 -7ZM1004 29L1016 41L1004 29ZM1064 89L1076 101L1064 89ZM740 -43L776 -7L740 -43ZM788 5L812 29L788 5ZM824 41L908 125L824 41ZM668 -43L728 17L668 -43ZM740 29L800 89L740 29ZM812 101L824 113L812 101ZM716 -19L800 65L716 -19ZM836 101L848 113L836 101ZM716 -43L728 -31L716 -43ZM776 17L788 29L776 17ZM800 41L812 53L800 41ZM824 65L848 89L824 65ZM860 101L872 113L860 101ZM776 -31L800 -7L776 -31ZM824 17L836 29L824 17ZM848 41L896 89L848 41ZM836 -43L848 -31L836 -43ZM860 -19L872 -7L860 -19ZM884 5L944 65L884 5ZM956 77L968 89L956 77ZM656 -7L668 5L656 -7ZM680 17L704 41L680 17ZM728 65L752 89L728 65ZM776 113L788 125L776 113ZM812 -19L836 5L812 -19ZM848 17L956 125L848 17ZM812 -43L824 -31L812 -43ZM836 -19L848 -7L836 -19ZM872 17L884 29L872 17ZM896 41L908 53L896 41ZM920 65L944 89L920 65ZM968 113L980 125L968 113ZM860 -43L872 -31L860 -43ZM884 -19L896 -7L884 -19ZM908 5L920 17L908 5ZM932 29L944 41L932 29ZM956 53L968 65L956 53ZM992 89L1016 113L992 89ZM644 -43L668 -19L644 -43ZM680 -7L704 17L680 -7ZM716 29L728 41L716 29ZM1208 -31L1220 -19L1208 -31ZM1232 -7L1256 17L1232 -7ZM1268 29L1280 41L1268 29ZM1292 53L1304 65L1292 53ZM1352 113L1364 125L1352 113ZM1232 -31L1244 -19L1232 -31ZM1280 17L1364 101L1280 17ZM1256 -31L1268 -19L1256 -31ZM1280 -7L1340 53L1280 -7ZM1352 65L1412 125L1352 65ZM1292 -43L1304 -31L1292 -43ZM1328 -7L1352 17L1328 -7ZM1376 41L1400 65L1376 41ZM1412 77L1424 89L1412 77ZM1316 -43L1484 125L1316 -43ZM1352 -31L1400 17L1352 -31ZM1424 41L1472 89L1424 41ZM1388 -43L1412 -19L1388 -43ZM1424 -7L1436 5L1424 -7ZM1448 17L1460 29L1448 17ZM1472 41L1484 53L1472 41ZM1496 65L1520 89L1496 65ZM1544 113L1556 125L1544 113ZM1412 -43L1448 -7L1412 -43ZM1460 5L1520 65L1460 5ZM1532 77L1544 89L1532 77ZM1400 -7L1412 5L1400 -7ZM1424 17L1532 125L1424 17ZM1460 -43L1628 125L1460 -43ZM1352 41L1364 53L1352 41ZM1376 65L1400 89L1376 65ZM1412 101L1436 125L1412 101ZM1460 -19L1472 -7L1460 -19ZM1484 5L1496 17L1484 5ZM1508 29L1520 41L1508 29ZM1532 53L1544 65L1532 53ZM1568 89L1592 113L1568 89ZM2324 -43L2408 41L2324 -43ZM2420 53L2444 77L2420 53ZM2456 89L2492 125L2456 89ZM2360 -31L2372 -19L2360 -31ZM2384 -7L2408 17L2384 -7ZM2420 29L2432 41L2420 29ZM2444 53L2456 65L2444 53ZM2504 113L2516 125L2504 113ZM2384 -31L2396 -19L2384 -31ZM2432 17L2516 101L2432 17ZM2408 -31L2420 -19L2408 -31ZM2432 -7L2492 53L2432 -7ZM2504 65L2564 125L2504 65ZM2444 -43L2456 -31L2444 -43ZM2480 -7L2504 17L2480 -7ZM2528 41L2552 65L2528 41ZM2564 77L2576 89L2564 77ZM2468 -43L2636 125L2468 -43ZM2504 -31L2552 17L2504 -31ZM2576 41L2624 89L2576 41ZM2540 -43L2564 -19L2540 -43ZM2576 -7L2588 5L2576 -7ZM2600 17L2612 29L2600 17ZM2624 41L2636 53L2624 41ZM2648 65L2672 89L2648 65ZM2696 113L2708 125L2696 113ZM2564 -43L2600 -7L2564 -43ZM2612 5L2672 65L2612 5ZM2684 77L2696 89L2684 77ZM2552 -7L2564 5L2552 -7ZM2576 17L2684 125L2576 17ZM2612 -43L2780 125L2612 -43ZM2300 -43L2312 -31L2300 -43ZM2360 17L2372 29L2360 17ZM2384 41L2408 65L2384 41ZM2432 89L2456 113L2432 89ZM2252 -19L2276 5L2252 -19ZM2300 29L2348 77L2300 29ZM2360 89L2372 101L2360 89ZM2384 113L2396 125L2384 113ZM2180 -43L2216 -7L2180 -43ZM2228 5L2252 29L2228 5ZM2276 53L2288 65L2276 53ZM2312 89L2348 125L2312 89ZM2276 -43L2288 -31L2276 -43ZM2300 -19L2336 17L2300 -19ZM2348 29L2372 53L2348 29ZM2396 77L2420 101L2396 77ZM2252 -43L2264 -31L2252 -43ZM2276 -19L2288 -7L2276 -19ZM2300 5L2312 17L2300 5ZM2324 29L2336 41L2324 29ZM2384 89L2396 101L2384 89ZM2408 113L2420 125L2408 113ZM2216 -31L2240 -7L2216 -31ZM2264 17L2288 41L2264 17ZM2312 65L2324 77L2312 65ZM2336 89L2348 101L2336 89ZM2360 113L2372 125L2360 113ZM2504 41L2516 53L2504 41ZM2528 65L2552 89L2528 65ZM2564 101L2588 125L2564 101ZM2036 -43L2204 125L2036 -43ZM2096 -7L2108 5L2096 -7ZM2120 17L2144 41L2120 17ZM2168 65L2192 89L2168 65ZM2216 113L2228 125L2216 113ZM2084 -43L2108 -19L2084 -43ZM2120 -7L2144 17L2120 -7ZM2156 29L2168 41L2156 29ZM2216 89L2228 101L2216 89ZM2108 -43L2168 17L2108 -43ZM2180 29L2228 77L2180 29ZM2240 89L2264 113L2240 89ZM2156 -19L2300 125L2156 -19ZM2156 -43L2168 -31L2156 -43ZM2216 17L2228 29L2216 17ZM2240 41L2252 53L2240 41ZM2264 65L2288 89L2264 65ZM2612 -19L2624 -7L2612 -19ZM2636 5L2648 17L2636 5ZM2660 29L2672 41L2660 29ZM2684 53L2696 65L2684 53ZM2720 89L2744 113L2720 89ZM2900 -43L3068 125L2900 -43ZM2756 -43L2792 -7L2756 -43ZM2804 5L2828 29L2804 5ZM2852 53L2864 65L2852 53ZM2888 89L2924 125L2888 89ZM2684 -43L2744 17L2684 -43ZM2756 29L2804 77L2756 29ZM2816 89L2840 113L2816 89ZM2732 -19L2876 125L2732 -19ZM2732 -43L2744 -31L2732 -43ZM2792 17L2804 29L2792 17ZM2816 41L2828 53L2816 41ZM2840 65L2864 89L2840 65ZM2792 -31L2816 -7L2792 -31ZM2840 17L2864 41L2840 17ZM2888 65L2900 77L2888 65ZM2912 89L2924 101L2912 89ZM2852 -43L2864 -31L2852 -43ZM2876 -19L2912 17L2876 -19ZM2924 29L2948 53L2924 29ZM2972 77L2984 89L2972 77ZM2672 -7L2684 5L2672 -7ZM2696 17L2720 41L2696 17ZM2744 65L2768 89L2744 65ZM2792 113L2804 125L2792 113ZM2828 -19L2852 5L2828 -19ZM2876 29L2924 77L2876 29ZM2936 89L2972 125L2936 89ZM2828 -43L2840 -31L2828 -43ZM2852 -19L2864 -7L2852 -19ZM2876 5L2888 17L2876 5ZM2900 29L2912 41L2900 29ZM2948 77L2960 89L2948 77ZM2972 101L2996 125L2972 101ZM2876 -43L2888 -31L2876 -43ZM2936 17L2948 29L2936 17ZM2960 41L2972 53L2960 41ZM2984 65L3032 113L2984 65ZM2660 -43L2684 -19L2660 -43ZM2696 -7L2720 17L2696 -7ZM2732 29L2744 41L2732 29ZM2792 89L2804 101L2792 89ZM1604 -43L1640 -7L1604 -43ZM1652 5L1676 29L1652 5ZM1700 53L1712 65L1700 53ZM1736 89L1772 125L1736 89ZM1532 -43L1592 17L1532 -43ZM1604 29L1652 77L1604 29ZM1664 89L1688 113L1664 89ZM1580 -19L1724 125L1580 -19ZM1580 -43L1592 -31L1580 -43ZM1640 17L1652 29L1640 17ZM1664 41L1676 53L1664 41ZM1688 65L1712 89L1688 65ZM1640 -31L1664 -7L1640 -31ZM1688 17L1712 41L1688 17ZM1736 65L1748 77L1736 65ZM1760 89L1772 101L1760 89ZM1700 -43L1712 -31L1700 -43ZM1724 -19L1760 17L1724 -19ZM1772 29L1796 53L1772 29ZM1820 77L1832 89L1820 77ZM1748 -43L1916 125L1748 -43ZM1520 -7L1532 5L1520 -7ZM1544 17L1568 41L1544 17ZM1592 65L1616 89L1592 65ZM1640 113L1652 125L1640 113ZM1676 -19L1700 5L1676 -19ZM1724 29L1772 77L1724 29ZM1784 89L1820 125L1784 89ZM1676 -43L1688 -31L1676 -43ZM1700 -19L1712 -7L1700 -19ZM1724 5L1736 17L1724 5ZM1748 29L1760 41L1748 29ZM1796 77L1808 89L1796 77ZM1820 101L1844 125L1820 101ZM1724 -43L1736 -31L1724 -43ZM1784 17L1796 29L1784 17ZM1808 41L1820 53L1808 41ZM1832 65L1880 113L1832 65ZM1508 -43L1532 -19L1508 -43ZM1544 -7L1568 17L1544 -7ZM1580 29L1592 41L1580 29ZM1640 89L1652 101L1640 89ZM1892 -43L1928 -7L1892 -43ZM1940 5L1964 29L1940 5ZM1976 41L2060 125L1976 41ZM1820 -43L1880 17L1820 -43ZM1892 29L1952 89L1892 29ZM1964 101L1976 113L1964 101ZM1868 -19L1952 65L1868 -19ZM1988 101L2000 113L1988 101ZM1868 -43L1880 -31L1868 -43ZM1928 17L1940 29L1928 17ZM1952 41L1964 53L1952 41ZM1976 65L2000 89L1976 65ZM2012 101L2024 113L2012 101ZM1928 -31L1952 -7L1928 -31ZM1976 17L1988 29L1976 17ZM2000 41L2048 89L2000 41ZM1988 -43L2000 -31L1988 -43ZM2012 -19L2024 -7L2012 -19ZM2036 5L2096 65L2036 5ZM2108 77L2120 89L2108 77ZM1808 -7L1820 5L1808 -7ZM1832 17L1856 41L1832 17ZM1880 65L1904 89L1880 65ZM1928 113L1940 125L1928 113ZM1964 -19L1988 5L1964 -19ZM2000 17L2108 125L2000 17ZM1964 -43L1976 -31L1964 -43ZM1988 -19L2000 -7L1988 -19ZM2024 17L2036 29L2024 17ZM2048 41L2060 53L2048 41ZM2072 65L2096 89L2072 65ZM2120 113L2132 125L2120 113ZM2012 -43L2024 -31L2012 -43ZM2036 -19L2048 -7L2036 -19ZM2060 5L2072 17L2060 5ZM2084 29L2096 41L2084 29ZM2108 53L2120 65L2108 53ZM2144 89L2168 113L2144 89ZM1796 -43L1820 -19L1796 -43ZM1832 -7L1856 17L1832 -7ZM1868 29L1880 41L1868 29ZM3476 -43L3560 41L3476 -43ZM3572 53L3596 77L3572 53ZM3608 89L3644 125L3608 89ZM3332 -43L3368 -7L3332 -43ZM3380 5L3404 29L3380 5ZM3428 53L3440 65L3428 53ZM3464 89L3500 125L3464 89ZM3188 -43L3356 125L3188 -43ZM3260 -43L3320 17L3260 -43ZM3332 29L3380 77L3332 29ZM3392 89L3416 113L3392 89ZM3308 -19L3452 125L3308 -19ZM3308 -43L3320 -31L3308 -43ZM3368 17L3380 29L3368 17ZM3392 41L3404 53L3392 41ZM3416 65L3440 89L3416 65ZM3368 -31L3392 -7L3368 -31ZM3416 17L3440 41L3416 17ZM3464 65L3476 77L3464 65ZM3488 89L3500 101L3488 89ZM3512 113L3524 125L3512 113ZM3428 -43L3440 -31L3428 -43ZM3452 -19L3488 17L3452 -19ZM3500 29L3524 53L3500 29ZM3548 77L3572 101L3548 77ZM3248 -7L3260 5L3248 -7ZM3272 17L3296 41L3272 17ZM3320 65L3344 89L3320 65ZM3368 113L3380 125L3368 113ZM3404 -19L3428 5L3404 -19ZM3452 29L3500 77L3452 29ZM3512 89L3524 101L3512 89ZM3536 113L3548 125L3536 113ZM3404 -43L3416 -31L3404 -43ZM3428 -19L3440 -7L3428 -19ZM3452 5L3464 17L3452 5ZM3476 29L3488 41L3476 29ZM3536 89L3548 101L3536 89ZM3560 113L3572 125L3560 113ZM3452 -43L3464 -31L3452 -43ZM3512 17L3524 29L3512 17ZM3536 41L3560 65L3536 41ZM3584 89L3608 113L3584 89ZM3236 -43L3260 -19L3236 -43ZM3272 -7L3296 17L3272 -7ZM3308 29L3320 41L3308 29ZM3368 89L3380 101L3368 89ZM3044 -43L3080 -7L3044 -43ZM3092 5L3116 29L3092 5ZM3128 41L3212 125L3128 41ZM2972 -43L3032 17L2972 -43ZM3044 29L3104 89L3044 29ZM3116 101L3128 113L3116 101ZM3020 -19L3104 65L3020 -19ZM3140 101L3152 113L3140 101ZM3020 -43L3032 -31L3020 -43ZM3080 17L3092 29L3080 17ZM3104 41L3116 53L3104 41ZM3128 65L3152 89L3128 65ZM3164 101L3176 113L3164 101ZM3080 -31L3104 -7L3080 -31ZM3128 17L3140 29L3128 17ZM3152 41L3200 89L3152 41ZM3140 -43L3152 -31L3140 -43ZM3164 -19L3176 -7L3164 -19ZM3188 5L3248 65L3188 5ZM3260 77L3272 89L3260 77ZM2960 -7L2972 5L2960 -7ZM2984 17L3008 41L2984 17ZM3032 65L3056 89L3032 65ZM3080 113L3092 125L3080 113ZM3116 -19L3140 5L3116 -19ZM3152 17L3260 125L3152 17ZM3116 -43L3128 -31L3116 -43ZM3140 -19L3152 -7L3140 -19ZM3176 17L3188 29L3176 17ZM3200 41L3212 53L3200 41ZM3224 65L3248 89L3224 65ZM3272 113L3284 125L3272 113ZM3164 -43L3176 -31L3164 -43ZM3188 -19L3200 -7L3188 -19ZM3212 5L3224 17L3212 5ZM3236 29L3248 41L3236 29ZM3260 53L3272 65L3260 53ZM3296 89L3320 113L3296 89ZM2948 -43L2972 -19L2948 -43ZM2984 -7L3008 17L2984 -7ZM3020 29L3032 41L3020 29ZM3512 -31L3524 -19L3512 -31ZM3536 -7L3560 17L3536 -7ZM3572 29L3584 41L3572 29ZM3596 53L3608 65L3596 53ZM3656 113L3668 125L3656 113ZM3536 -31L3548 -19L3536 -31ZM3584 17L3668 101L3584 17ZM3560 -31L3572 -19L3560 -31ZM3584 -7L3644 53L3584 -7ZM3656 65L3716 125L3656 65ZM3596 -43L3608 -31L3596 -43ZM3632 -7L3656 17L3632 -7ZM3680 41L3704 65L3680 41ZM3716 77L3728 89L3716 77ZM3620 -43L3788 125L3620 -43ZM3656 -31L3704 17L3656 -31ZM3728 41L3776 89L3728 41ZM3692 -43L3716 -19L3692 -43ZM3728 -7L3740 5L3728 -7ZM3752 17L3764 29L3752 17ZM3776 41L3788 53L3776 41ZM3800 65L3824 89L3800 65ZM3848 113L3860 125L3848 113ZM3716 -43L3752 -7L3716 -43ZM3764 5L3824 65L3764 5ZM3836 77L3848 89L3836 77ZM3704 -7L3716 5L3704 -7ZM3728 17L3836 125L3728 17ZM3764 -43L3860 53L3764 -43ZM3656 41L3668 53L3656 41ZM3680 65L3704 89L3680 65ZM3716 101L3740 125L3716 101ZM3764 -19L3776 -7L3764 -19ZM3788 5L3800 17L3788 5ZM3812 29L3824 41L3812 29ZM3836 53L3848 65L3836 53ZM3824 -7L3836 5L3824 -7ZM3848 17L3860 29L3848 17ZM3812 -43L3836 -19L3812 -43ZM3848 -7L3860 5L3848 -7ZM3836 -43L3860 -19L3836 -43ZM-16 17L44 -43L-16 17ZM-4 29L8 17L-4 29ZM44 -19L56 -31L44 -19ZM-16 65L8 41L-16 65ZM20 29L56 -7L20 29ZM68 -19L92 -43L68 -19ZM-16 89L44 29L-16 89ZM56 17L68 5L56 17ZM80 -7L92 -19L80 -7ZM104 -31L116 -43L104 -31ZM-16 113L20 77L-16 113ZM56 41L68 29L56 41ZM80 17L140 -43L80 17ZM32 89L80 41L32 89ZM104 17L152 -31L104 17ZM20 125L188 -43L20 125ZM44 125L56 113L44 125ZM68 101L80 89L68 101ZM92 77L104 65L92 77ZM116 53L128 41L116 53ZM152 17L176 -7L152 17ZM188 -19L200 -31L188 -19ZM68 125L128 65L68 125ZM140 53L152 41L140 53ZM188 5L200 -7L188 5ZM212 -19L236 -43L212 -19ZM104 113L116 101L104 113ZM128 89L152 65L128 89ZM176 41L200 17L176 41ZM248 -31L260 -43L248 -31ZM116 125L224 17L116 125ZM236 5L260 -19L236 5ZM272 -31L284 -43L272 -31ZM140 125L152 113L140 125ZM200 65L224 41L200 65ZM236 29L248 17L236 29ZM260 5L272 -7L260 5ZM164 125L200 89L164 125ZM224 65L236 53L224 65ZM248 41L332 -43L248 41ZM188 125L200 113L188 125ZM212 101L224 89L212 101ZM248 65L260 53L248 65ZM272 41L296 17L272 41ZM308 5L320 -7L308 5ZM212 125L260 77L212 125ZM308 29L320 17L308 29ZM332 5L368 -31L332 5ZM248 113L260 101L248 113ZM272 89L296 65L272 89ZM308 53L320 41L308 53ZM332 29L344 17L332 29ZM356 5L368 -7L356 5ZM380 -19L392 -31L380 -19ZM272 113L296 89L272 113ZM332 53L356 29L332 53ZM380 5L428 -43L380 5ZM308 125L344 89L308 125ZM356 77L380 53L356 77ZM404 29L416 17L404 29ZM440 -7L476 -43L440 -7ZM452 125L620 -43L452 125ZM380 125L428 77L380 125ZM440 65L464 41L440 65ZM488 17L512 -7L488 17ZM524 -19L536 -31L524 -19ZM356 125L524 -43L356 125ZM368 89L380 77L368 89ZM392 65L404 53L392 65ZM416 41L440 17L416 41ZM488 -31L500 -43L488 -31ZM320 89L344 65L320 89ZM368 41L392 17L368 41ZM416 -7L428 -19L416 -7ZM440 -31L452 -43L440 -31ZM428 125L440 113L428 125ZM464 89L488 65L464 89ZM512 41L524 29L512 41ZM536 17L548 5L536 17ZM560 -7L572 -19L560 -7ZM584 -31L596 -43L584 -31ZM-16 -7L-4 -19L-16 -7ZM8 -31L20 -43L8 -31ZM440 89L452 77L440 89ZM488 41L500 29L488 41ZM512 17L572 -43L512 17ZM1028 125L1196 -43L1028 125ZM884 125L920 89L884 125ZM932 77L956 53L932 77ZM980 29L992 17L980 29ZM1016 -7L1052 -43L1016 -7ZM1004 125L1016 113L1004 125ZM1040 89L1064 65L1040 89ZM1088 41L1100 29L1088 41ZM1112 17L1124 5L1112 17ZM1136 -7L1148 -19L1136 -7ZM1160 -31L1172 -43L1160 -31ZM1016 89L1028 77L1016 89ZM1064 41L1076 29L1064 41ZM1088 17L1148 -43L1088 17ZM956 125L1004 77L956 125ZM1016 65L1040 41L1016 65ZM1064 17L1088 -7L1064 17ZM1100 -19L1112 -31L1100 -19ZM932 125L1100 -43L932 125ZM944 89L956 77L944 89ZM968 65L980 53L968 65ZM992 41L1016 17L992 41ZM1064 -31L1076 -43L1064 -31ZM872 113L884 101L872 113ZM896 89L920 65L896 89ZM944 41L968 17L944 41ZM992 -7L1004 -19L992 -7ZM1016 -31L1028 -43L1016 -31ZM836 125L860 101L836 125ZM908 53L932 29L908 53ZM956 5L1004 -43L956 5ZM812 125L824 113L812 125ZM836 101L848 89L836 101ZM860 77L872 65L860 77ZM884 53L896 41L884 53ZM908 29L920 17L908 29ZM932 5L944 -7L932 5ZM956 -19L968 -31L956 -19ZM788 125L848 65L788 125ZM884 29L896 17L884 29ZM908 5L944 -31L908 5ZM740 125L908 -43L740 125ZM596 125L680 41L596 125ZM692 29L704 17L692 29ZM728 -7L764 -43L728 -7ZM728 113L740 101L728 113ZM752 89L776 65L752 89ZM800 41L812 29L800 41ZM824 17L836 5L824 17ZM848 -7L860 -19L848 -7ZM872 -31L884 -43L872 -31ZM692 125L716 101L692 125ZM728 89L740 77L728 89ZM776 41L788 29L776 41ZM800 17L860 -43L800 17ZM668 125L680 113L668 125ZM728 65L752 41L728 65ZM776 17L800 -7L776 17ZM812 -19L824 -31L812 -19ZM644 125L656 113L644 125ZM668 101L692 77L668 101ZM704 65L812 -43L704 65ZM656 89L668 77L656 89ZM680 65L692 53L680 65ZM704 41L728 17L704 41ZM776 -31L788 -43L776 -31ZM608 89L656 41L608 89ZM668 29L680 17L668 29ZM704 -7L716 -19L704 -7ZM728 -31L740 -43L728 -31ZM548 125L596 77L548 125ZM632 41L644 29L632 41ZM668 5L716 -43L668 5ZM524 125L548 101L524 125ZM560 89L620 29L560 89ZM632 17L656 -7L632 17ZM668 -19L680 -31L668 -19ZM536 89L548 77L536 89ZM560 65L584 41L560 65ZM596 29L656 -31L596 29ZM776 113L824 65L776 113ZM848 41L872 17L848 41ZM884 5L896 -7L884 5ZM488 113L512 89L488 113ZM536 65L560 41L536 65ZM572 29L584 17L572 29ZM1064 113L1088 89L1064 113ZM1112 65L1136 41L1112 65ZM1148 29L1160 17L1148 29ZM1196 -19L1208 -31L1196 -19ZM1112 89L1124 77L1112 89ZM1136 65L1160 41L1136 65ZM1172 29L1208 -7L1172 29ZM1220 -19L1244 -43L1220 -19ZM1100 125L1124 101L1100 125ZM1136 89L1196 29L1136 89ZM1208 17L1220 5L1208 17ZM1232 -7L1244 -19L1232 -7ZM1256 -31L1268 -43L1256 -31ZM1124 125L1172 77L1124 125ZM1208 41L1220 29L1208 41ZM1232 17L1292 -43L1232 17ZM1184 89L1232 41L1184 89ZM1256 17L1304 -31L1256 17ZM1172 125L1340 -43L1172 125ZM1196 125L1208 113L1196 125ZM1220 101L1232 89L1220 101ZM1244 77L1256 65L1244 77ZM1268 53L1280 41L1268 53ZM1304 17L1328 -7L1304 17ZM1340 -19L1352 -31L1340 -19ZM1220 125L1280 65L1220 125ZM1292 53L1304 41L1292 53ZM1340 5L1352 -7L1340 5ZM1364 -19L1388 -43L1364 -19ZM1256 113L1268 101L1256 113ZM1280 89L1304 65L1280 89ZM1328 41L1352 17L1328 41ZM1400 -31L1412 -43L1400 -31ZM1268 125L1376 17L1268 125ZM1388 5L1412 -19L1388 5ZM1424 -31L1436 -43L1424 -31ZM1292 125L1304 113L1292 125ZM1352 65L1376 41L1352 65ZM1388 29L1400 17L1388 29ZM1412 5L1424 -7L1412 5ZM1316 125L1352 89L1316 125ZM1376 65L1388 53L1376 65ZM1400 41L1484 -43L1400 41ZM1340 125L1352 113L1340 125ZM1364 101L1376 89L1364 101ZM1400 65L1412 53L1400 65ZM1424 41L1448 17L1424 41ZM1460 5L1472 -7L1460 5ZM1364 125L1412 77L1364 125ZM1460 29L1472 17L1460 29ZM1484 5L1520 -31L1484 5ZM1400 113L1412 101L1400 113ZM1424 89L1448 65L1424 89ZM1460 53L1472 41L1460 53ZM1484 29L1496 17L1484 29ZM1508 5L1520 -7L1508 5ZM1532 -19L1544 -31L1532 -19ZM1424 113L1448 89L1424 113ZM1484 53L1508 29L1484 53ZM1532 5L1580 -43L1532 5ZM1460 125L1496 89L1460 125ZM1508 77L1532 53L1508 77ZM1556 29L1568 17L1556 29ZM1592 -7L1628 -43L1592 -7ZM1604 125L1772 -43L1604 125ZM1532 125L1580 77L1532 125ZM1592 65L1616 41L1592 65ZM1640 17L1664 -7L1640 17ZM1676 -19L1688 -31L1676 -19ZM1508 125L1676 -43L1508 125ZM1520 89L1532 77L1520 89ZM1544 65L1556 53L1544 65ZM1568 41L1592 17L1568 41ZM1640 -31L1652 -43L1640 -31ZM1472 89L1496 65L1472 89ZM1520 41L1544 17L1520 41ZM1568 -7L1580 -19L1568 -7ZM1592 -31L1604 -43L1592 -31ZM1580 125L1592 113L1580 125ZM1616 89L1640 65L1616 89ZM1664 41L1676 29L1664 41ZM1688 17L1700 5L1688 17ZM1712 -7L1724 -19L1712 -7ZM1736 -31L1748 -43L1736 -31ZM2180 125L2348 -43L2180 125ZM2216 113L2240 89L2216 113ZM2264 65L2288 41L2264 65ZM2300 29L2312 17L2300 29ZM2348 -19L2360 -31L2348 -19ZM2264 89L2276 77L2264 89ZM2288 65L2312 41L2288 65ZM2324 29L2360 -7L2324 29ZM2372 -19L2396 -43L2372 -19ZM2252 125L2276 101L2252 125ZM2288 89L2348 29L2288 89ZM2360 17L2372 5L2360 17ZM2384 -7L2396 -19L2384 -7ZM2408 -31L2420 -43L2408 -31ZM2276 125L2324 77L2276 125ZM2360 41L2372 29L2360 41ZM2384 17L2444 -43L2384 17ZM2336 89L2384 41L2336 89ZM2408 17L2456 -31L2408 17ZM2324 125L2492 -43L2324 125ZM2348 125L2360 113L2348 125ZM2372 101L2384 89L2372 101ZM2396 77L2408 65L2396 77ZM2420 53L2432 41L2420 53ZM2456 17L2480 -7L2456 17ZM2492 -19L2504 -31L2492 -19ZM2372 125L2432 65L2372 125ZM2444 53L2456 41L2444 53ZM2492 5L2504 -7L2492 5ZM2516 -19L2540 -43L2516 -19ZM2408 113L2420 101L2408 113ZM2432 89L2456 65L2432 89ZM2480 41L2504 17L2480 41ZM2552 -31L2564 -43L2552 -31ZM2420 125L2528 17L2420 125ZM2540 5L2564 -19L2540 5ZM2576 -31L2588 -43L2576 -31ZM2444 125L2456 113L2444 125ZM2504 65L2528 41L2504 65ZM2540 29L2552 17L2540 29ZM2564 5L2576 -7L2564 5ZM2468 125L2504 89L2468 125ZM2528 65L2540 53L2528 65ZM2552 41L2636 -43L2552 41ZM2492 125L2504 113L2492 125ZM2516 101L2528 89L2516 101ZM2552 65L2564 53L2552 65ZM2576 41L2600 17L2576 41ZM2612 5L2624 -7L2612 5ZM2516 125L2564 77L2516 125ZM2612 29L2624 17L2612 29ZM2636 5L2672 -31L2636 5ZM2552 113L2564 101L2552 113ZM2576 89L2600 65L2576 89ZM2612 53L2624 41L2612 53ZM2636 29L2648 17L2636 29ZM2660 5L2672 -7L2660 5ZM2684 -19L2696 -31L2684 -19ZM2576 113L2600 89L2576 113ZM2636 53L2660 29L2636 53ZM2684 5L2732 -43L2684 5ZM2612 125L2648 89L2612 125ZM2660 77L2684 53L2660 77ZM2708 29L2720 17L2708 29ZM2744 -7L2780 -43L2744 -7ZM2756 125L2924 -43L2756 125ZM2684 125L2732 77L2684 125ZM2744 65L2768 41L2744 65ZM2792 17L2816 -7L2792 17ZM2828 -19L2840 -31L2828 -19ZM2660 125L2828 -43L2660 125ZM2672 89L2684 77L2672 89ZM2696 65L2708 53L2696 65ZM2720 41L2744 17L2720 41ZM2792 -31L2804 -43L2792 -31ZM2624 89L2648 65L2624 89ZM2672 41L2696 17L2672 41ZM2720 -7L2732 -19L2720 -7ZM2744 -31L2756 -43L2744 -31ZM2732 125L2744 113L2732 125ZM2768 89L2792 65L2768 89ZM2816 41L2828 29L2816 41ZM2840 17L2852 5L2840 17ZM2864 -7L2876 -19L2864 -7ZM2888 -31L2900 -43L2888 -31ZM1892 125L2060 -43L1892 125ZM2036 125L2072 89L2036 125ZM2084 77L2108 53L2084 77ZM2132 29L2144 17L2132 29ZM2168 -7L2204 -43L2168 -7ZM2156 125L2168 113L2156 125ZM2192 89L2216 65L2192 89ZM2240 41L2252 29L2240 41ZM2264 17L2276 5L2264 17ZM2288 -7L2300 -19L2288 -7ZM2312 -31L2324 -43L2312 -31ZM2168 89L2180 77L2168 89ZM2216 41L2228 29L2216 41ZM2240 17L2300 -43L2240 17ZM2108 125L2156 77L2108 125ZM2168 65L2192 41L2168 65ZM2216 17L2240 -7L2216 17ZM2252 -19L2264 -31L2252 -19ZM2084 125L2252 -43L2084 125ZM2096 89L2108 77L2096 89ZM2120 65L2132 53L2120 65ZM2144 41L2168 17L2144 41ZM2216 -31L2228 -43L2216 -31ZM2024 113L2036 101L2024 113ZM2048 89L2072 65L2048 89ZM2096 41L2120 17L2096 41ZM2144 -7L2156 -19L2144 -7ZM2168 -31L2180 -43L2168 -31ZM1988 125L2012 101L1988 125ZM2060 53L2084 29L2060 53ZM2108 5L2156 -43L2108 5ZM1964 125L1976 113L1964 125ZM1988 101L2000 89L1988 101ZM2012 77L2024 65L2012 77ZM2036 53L2048 41L2036 53ZM2060 29L2072 17L2060 29ZM2084 5L2096 -7L2084 5ZM2108 -19L2120 -31L2108 -19ZM1940 125L2000 65L1940 125ZM2036 29L2048 17L2036 29ZM2060 5L2096 -31L2060 5ZM2744 89L2756 77L2744 89ZM2792 41L2804 29L2792 41ZM2816 17L2876 -43L2816 17ZM1592 89L1604 77L1592 89ZM1640 41L1652 29L1640 41ZM1664 17L1724 -43L1664 17ZM1748 125L1832 41L1748 125ZM1844 29L1856 17L1844 29ZM1880 -7L1916 -43L1880 -7ZM1880 113L1892 101L1880 113ZM1904 89L1928 65L1904 89ZM1952 41L1964 29L1952 41ZM1976 17L1988 5L1976 17ZM2000 -7L2012 -19L2000 -7ZM2024 -31L2036 -43L2024 -31ZM1844 125L1868 101L1844 125ZM1880 89L1892 77L1880 89ZM1928 41L1940 29L1928 41ZM1952 17L2012 -43L1952 17ZM1820 125L1832 113L1820 125ZM1880 65L1904 41L1880 65ZM1928 17L1952 -7L1928 17ZM1964 -19L1976 -31L1964 -19ZM1796 125L1808 113L1796 125ZM1820 101L1844 77L1820 101ZM1856 65L1964 -43L1856 65ZM1808 89L1820 77L1808 89ZM1832 65L1844 53L1832 65ZM1856 41L1880 17L1856 41ZM1928 -31L1940 -43L1928 -31ZM1760 89L1808 41L1760 89ZM1820 29L1832 17L1820 29ZM1856 -7L1868 -19L1856 -7ZM1880 -31L1892 -43L1880 -31ZM1700 125L1748 77L1700 125ZM1784 41L1796 29L1784 41ZM1820 5L1868 -43L1820 5ZM1676 125L1700 101L1676 125ZM1712 89L1772 29L1712 89ZM1784 17L1808 -7L1784 17ZM1820 -19L1832 -31L1820 -19ZM1688 89L1700 77L1688 89ZM1712 65L1736 41L1712 65ZM1748 29L1808 -31L1748 29ZM1928 113L1976 65L1928 113ZM2000 41L2024 17L2000 41ZM2036 5L2048 -7L2036 5ZM1640 113L1664 89L1640 113ZM1688 65L1712 41L1688 65ZM1724 29L1736 17L1724 29ZM3332 125L3500 -43L3332 125ZM3188 125L3224 89L3188 125ZM3236 77L3260 53L3236 77ZM3284 29L3296 17L3284 29ZM3320 -7L3356 -43L3320 -7ZM3308 125L3320 113L3308 125ZM3344 89L3368 65L3344 89ZM3392 41L3404 29L3392 41ZM3416 17L3428 5L3416 17ZM3440 -7L3452 -19L3440 -7ZM3464 -31L3476 -43L3464 -31ZM3320 89L3332 77L3320 89ZM3368 41L3380 29L3368 41ZM3392 17L3452 -43L3392 17ZM3260 125L3308 77L3260 125ZM3320 65L3344 41L3320 65ZM3368 17L3392 -7L3368 17ZM3404 -19L3416 -31L3404 -19ZM3236 125L3404 -43L3236 125ZM3248 89L3260 77L3248 89ZM3272 65L3284 53L3272 65ZM3296 41L3320 17L3296 41ZM3368 -31L3380 -43L3368 -31ZM3176 113L3188 101L3176 113ZM3200 89L3224 65L3200 89ZM3248 41L3272 17L3248 41ZM3296 -7L3308 -19L3296 -7ZM3320 -31L3332 -43L3320 -31ZM3140 125L3164 101L3140 125ZM3212 53L3236 29L3212 53ZM3260 5L3308 -43L3260 5ZM3116 125L3128 113L3116 125ZM3140 101L3152 89L3140 101ZM3164 77L3176 65L3164 77ZM3188 53L3200 41L3188 53ZM3212 29L3224 17L3212 29ZM3236 5L3248 -7L3236 5ZM3260 -19L3272 -31L3260 -19ZM3092 125L3152 65L3092 125ZM3188 29L3200 17L3188 29ZM3212 5L3248 -31L3212 5ZM3044 125L3212 -43L3044 125ZM2900 125L2984 41L2900 125ZM2996 29L3008 17L2996 29ZM3032 -7L3068 -43L3032 -7ZM3032 113L3044 101L3032 113ZM3056 89L3080 65L3056 89ZM3104 41L3116 29L3104 41ZM3128 17L3140 5L3128 17ZM3152 -7L3164 -19L3152 -7ZM3176 -31L3188 -43L3176 -31ZM2996 125L3020 101L2996 125ZM3032 89L3044 77L3032 89ZM3080 41L3092 29L3080 41ZM3104 17L3164 -43L3104 17ZM2972 125L2984 113L2972 125ZM3032 65L3056 41L3032 65ZM3080 17L3104 -7L3080 17ZM3116 -19L3128 -31L3116 -19ZM2948 125L2960 113L2948 125ZM2972 101L2996 77L2972 101ZM3008 65L3116 -43L3008 65ZM2960 89L2972 77L2960 89ZM2984 65L2996 53L2984 65ZM3008 41L3032 17L3008 41ZM3080 -31L3092 -43L3080 -31ZM2912 89L2960 41L2912 89ZM2972 29L2984 17L2972 29ZM3008 -7L3020 -19L3008 -7ZM3032 -31L3044 -43L3032 -31ZM2852 125L2900 77L2852 125ZM2936 41L2948 29L2936 41ZM2972 5L3020 -43L2972 5ZM2828 125L2852 101L2828 125ZM2864 89L2924 29L2864 89ZM2936 17L2960 -7L2936 17ZM2972 -19L2984 -31L2972 -19ZM2840 89L2852 77L2840 89ZM2864 65L2888 41L2864 65ZM2900 29L2960 -31L2900 29ZM3080 113L3128 65L3080 113ZM3152 41L3176 17L3152 41ZM3188 5L3200 -7L3188 5ZM2792 113L2816 89L2792 113ZM2840 65L2864 41L2840 65ZM2876 29L2888 17L2876 29ZM3368 113L3392 89L3368 113ZM3416 65L3440 41L3416 65ZM3452 29L3464 17L3452 29ZM3500 -19L3512 -31L3500 -19ZM3416 89L3428 77L3416 89ZM3440 65L3464 41L3440 65ZM3476 29L3512 -7L3476 29ZM3524 -19L3548 -43L3524 -19ZM3404 125L3428 101L3404 125ZM3440 89L3500 29L3440 89ZM3512 17L3524 5L3512 17ZM3536 -7L3548 -19L3536 -7ZM3560 -31L3572 -43L3560 -31ZM3428 125L3476 77L3428 125ZM3512 41L3524 29L3512 41ZM3536 17L3596 -43L3536 17ZM3488 89L3536 41L3488 89ZM3560 17L3608 -31L3560 17ZM3476 125L3644 -43L3476 125ZM3500 125L3512 113L3500 125ZM3524 101L3536 89L3524 101ZM3548 77L3560 65L3548 77ZM3572 53L3584 41L3572 53ZM3608 17L3632 -7L3608 17ZM3644 -19L3656 -31L3644 -19ZM3524 125L3584 65L3524 125ZM3596 53L3608 41L3596 53ZM3644 5L3656 -7L3644 5ZM3668 -19L3692 -43L3668 -19ZM3560 113L3572 101L3560 113ZM3584 89L3608 65L3584 89ZM3632 41L3656 17L3632 41ZM3704 -31L3716 -43L3704 -31ZM3572 125L3680 17L3572 125ZM3692 5L3716 -19L3692 5ZM3728 -31L3740 -43L3728 -31ZM3596 125L3608 113L3596 125ZM3656 65L3680 41L3656 65ZM3692 29L3704 17L3692 29ZM3716 5L3728 -7L3716 5ZM3620 125L3656 89L3620 125ZM3680 65L3692 53L3680 65ZM3704 41L3788 -43L3704 41ZM3644 125L3656 113L3644 125ZM3668 101L3680 89L3668 101ZM3704 65L3716 53L3704 65ZM3728 41L3752 17L3728 41ZM3764 5L3776 -7L3764 5ZM3668 125L3716 77L3668 125ZM3764 29L3776 17L3764 29ZM3788 5L3824 -31L3788 5ZM3704 113L3716 101L3704 113ZM3728 89L3752 65L3728 89ZM3764 53L3776 41L3764 53ZM3788 29L3800 17L3788 29ZM3812 5L3824 -7L3812 5ZM3836 -19L3848 -31L3836 -19ZM3728 113L3752 89L3728 113ZM3788 53L3812 29L3788 53ZM3836 5L3860 -19L3836 5ZM3764 125L3800 89L3764 125ZM3812 77L3836 53L3812 77ZM3824 89L3836 77L3824 89ZM3848 65L3860 53L3848 65ZM3776 89L3800 65L3776 89ZM3824 41L3848 17L3824 41ZM3812 125L3860 77L3812 125Z" stroke="black" stroke-opacity="0.32" stroke-width="5" stroke-linecap="round" stroke-linejoin="round"/>
<path d="M3836 121L3860 97M20 -47L104 37L20 -47ZM116 49L140 73L116 49ZM152 85L188 121L152 85ZM56 -35L68 -23L56 -35ZM80 -11L104 13L80 -11ZM116 25L128 37L116 25ZM140 49L152 61L140 49ZM200 109L212 121L200 109ZM80 -35L92 -23L80 -35ZM128 13L212 97L128 13ZM104 -35L116 -23L104 -35ZM128 -11L188 49L128 -11ZM200 61L260 121L200 61ZM140 -47L152 -35L140 -47ZM176 -11L200 13L176 -11ZM224 37L248 61L224 37ZM260 73L272 85L260 73ZM164 -47L332 121L164 -47ZM200 -35L248 13L200 -35ZM272 37L320 85L272 37ZM236 -47L260 -23L236 -47ZM272 -11L284 1L272 -11ZM296 13L308 25L296 13ZM320 37L332 49L320 37ZM344 61L368 85L344 61ZM392 109L404 121L392 109ZM260 -47L296 -11L260 -47ZM308 1L368 61L308 1ZM380 73L392 85L380 73ZM248 -11L260 1L248 -11ZM272 13L380 121L272 13ZM308 -47L476 121L308 -47ZM-4 -47L8 -35L-4 -47ZM56 13L68 25L56 13ZM80 37L104 61L80 37ZM128 85L152 109L128 85ZM-4 25L44 73L-4 25ZM56 85L68 97L56 85ZM80 109L92 121L80 109ZM8 85L44 121L8 85ZM-4 -23L32 13L-4 -23ZM44 25L68 49L44 25ZM92 73L116 97L92 73ZM-4 1L8 13L-4 1ZM20 25L32 37L20 25ZM80 85L92 97L80 85ZM104 109L116 121L104 109ZM8 61L20 73L8 61ZM32 85L44 97L32 85ZM56 109L68 121L56 109ZM200 37L212 49L200 37ZM224 61L248 85L224 61ZM260 97L284 121L260 97ZM308 -23L320 -11L308 -23ZM332 1L344 13L332 1ZM356 25L368 37L356 25ZM380 49L392 61L380 49ZM416 85L440 109L416 85ZM596 -47L764 121L596 -47ZM452 -47L488 -11L452 -47ZM500 1L524 25L500 1ZM548 49L560 61L548 49ZM584 85L620 121L584 85ZM380 -47L440 13L380 -47ZM452 25L500 73L452 25ZM512 85L536 109L512 85ZM428 -23L572 121L428 -23ZM428 -47L440 -35L428 -47ZM488 13L500 25L488 13ZM512 37L524 49L512 37ZM536 61L560 85L536 61ZM488 -35L512 -11L488 -35ZM536 13L560 37L536 13ZM584 61L596 73L584 61ZM608 85L620 97L608 85ZM548 -47L560 -35L548 -47ZM572 -23L608 13L572 -23ZM620 25L644 49L620 25ZM668 73L680 85L668 73ZM368 -11L380 1L368 -11ZM392 13L416 37L392 13ZM440 61L464 85L440 61ZM488 109L500 121L488 109ZM524 -23L548 1L524 -23ZM572 25L620 73L572 25ZM632 85L668 121L632 85ZM524 -47L536 -35L524 -47ZM548 -23L560 -11L548 -23ZM572 1L584 13L572 1ZM596 25L608 37L596 25ZM644 73L656 85L644 73ZM668 97L692 121L668 97ZM572 -47L584 -35L572 -47ZM632 13L644 25L632 13ZM656 37L668 49L656 37ZM680 61L728 109L680 61ZM356 -47L380 -23L356 -47ZM392 -11L416 13L392 -11ZM428 25L440 37L428 25ZM488 85L500 97L488 85ZM1172 -47L1256 37L1172 -47ZM1268 49L1292 73L1268 49ZM1304 85L1340 121L1304 85ZM1028 -47L1064 -11L1028 -47ZM1076 1L1100 25L1076 1ZM1124 49L1136 61L1124 49ZM1160 85L1196 121L1160 85ZM884 -47L1052 121L884 -47ZM956 -47L1016 13L956 -47ZM1028 25L1076 73L1028 25ZM1088 85L1112 109L1088 85ZM1004 -23L1148 121L1004 -23ZM1004 -47L1016 -35L1004 -47ZM1064 13L1076 25L1064 13ZM1088 37L1100 49L1088 37ZM1112 61L1136 85L1112 61ZM1064 -35L1088 -11L1064 -35ZM1112 13L1136 37L1112 13ZM1160 61L1172 73L1160 61ZM1184 85L1196 97L1184 85ZM1208 109L1220 121L1208 109ZM1124 -47L1136 -35L1124 -47ZM1148 -23L1184 13L1148 -23ZM1196 25L1220 49L1196 25ZM1244 73L1268 97L1244 73ZM944 -11L956 1L944 -11ZM968 13L992 37L968 13ZM1016 61L1040 85L1016 61ZM1064 109L1076 121L1064 109ZM1100 -23L1124 1L1100 -23ZM1148 25L1196 73L1148 25ZM1208 85L1220 97L1208 85ZM1232 109L1244 121L1232 109ZM1100 -47L1112 -35L1100 -47ZM1124 -23L1136 -11L1124 -23ZM1148 1L1160 13L1148 1ZM1172 25L1184 37L1172 25ZM1232 85L1244 97L1232 85ZM1256 109L1268 121L1256 109ZM1148 -47L1160 -35L1148 -47ZM1208 13L1220 25L1208 13ZM1232 37L1256 61L1232 37ZM1280 85L1304 109L1280 85ZM932 -47L956 -23L932 -47ZM968 -11L992 13L968 -11ZM1004 25L1016 37L1004 25ZM1064 85L1076 97L1064 85ZM740 -47L776 -11L740 -47ZM788 1L812 25L788 1ZM824 37L908 121L824 37ZM668 -47L728 13L668 -47ZM740 25L800 85L740 25ZM812 97L824 109L812 97ZM716 -23L800 61L716 -23ZM836 97L848 109L836 97ZM716 -47L728 -35L716 -47ZM776 13L788 25L776 13ZM800 37L812 49L800 37ZM824 61L848 85L824 61ZM860 97L872 109L860 97ZM776 -35L800 -11L776 -35ZM824 13L836 25L824 13ZM848 37L896 85L848 37ZM836 -47L848 -35L836 -47ZM860 -23L872 -11L860 -23ZM884 1L944 61L884 1ZM956 73L968 85L956 73ZM656 -11L668 1L656 -11ZM680 13L704 37L680 13ZM728 61L752 85L728 61ZM776 109L788 121L776 109ZM812 -23L836 1L812 -23ZM848 13L956 121L848 13ZM812 -47L824 -35L812 -47ZM836 -23L848 -11L836 -23ZM872 13L884 25L872 13ZM896 37L908 49L896 37ZM920 61L944 85L920 61ZM968 109L980 121L968 109ZM860 -47L872 -35L860 -47ZM884 -23L896 -11L884 -23ZM908 1L920 13L908 1ZM932 25L944 37L932 25ZM956 49L968 61L956 49ZM992 85L1016 109L992 85ZM644 -47L668 -23L644 -47ZM680 -11L704 13L680 -11ZM716 25L728 37L716 25ZM1208 -35L1220 -23L1208 -35ZM1232 -11L1256 13L1232 -11ZM1268 25L1280 37L1268 25ZM1292 49L1304 61L1292 49ZM1352 109L1364 121L1352 109ZM1232 -35L1244 -23L1232 -35ZM1280 13L1364 97L1280 13ZM1256 -35L1268 -23L1256 -35ZM1280 -11L1340 49L1280 -11ZM1352 61L1412 121L1352 61ZM1292 -47L1304 -35L1292 -47ZM1328 -11L1352 13L1328 -11ZM1376 37L1400 61L1376 37ZM1412 73L1424 85L1412 73ZM1316 -47L1484 121L1316 -47ZM1352 -35L1400 13L1352 -35ZM1424 37L1472 85L1424 37ZM1388 -47L1412 -23L1388 -47ZM1424 -11L1436 1L1424 -11ZM1448 13L1460 25L1448 13ZM1472 37L1484 49L1472 37ZM1496 61L1520 85L1496 61ZM1544 109L1556 121L1544 109ZM1412 -47L1448 -11L1412 -47ZM1460 1L1520 61L1460 1ZM1532 73L1544 85L1532 73ZM1400 -11L1412 1L1400 -11ZM1424 13L1532 121L1424 13ZM1460 -47L1628 121L1460 -47ZM1352 37L1364 49L1352 37ZM1376 61L1400 85L1376 61ZM1412 97L1436 121L1412 97ZM1460 -23L1472 -11L1460 -23ZM1484 1L1496 13L1484 1ZM1508 25L1520 37L1508 25ZM1532 49L1544 61L1532 49ZM1568 85L1592 109L1568 85ZM2324 -47L2408 37L2324 -47ZM2420 49L2444 73L2420 49ZM2456 85L2492 121L2456 85ZM2360 -35L2372 -23L2360 -35ZM2384 -11L2408 13L2384 -11ZM2420 25L2432 37L2420 25ZM2444 49L2456 61L2444 49ZM2504 109L2516 121L2504 109ZM2384 -35L2396 -23L2384 -35ZM2432 13L2516 97L2432 13ZM2408 -35L2420 -23L2408 -35ZM2432 -11L2492 49L2432 -11ZM2504 61L2564 121L2504 61ZM2444 -47L2456 -35L2444 -47ZM2480 -11L2504 13L2480 -11ZM2528 37L2552 61L2528 37ZM2564 73L2576 85L2564 73ZM2468 -47L2636 121L2468 -47ZM2504 -35L2552 13L2504 -35ZM2576 37L2624 85L2576 37ZM2540 -47L2564 -23L2540 -47ZM2576 -11L2588 1L2576 -11ZM2600 13L2612 25L2600 13ZM2624 37L2636 49L2624 37ZM2648 61L2672 85L2648 61ZM2696 109L2708 121L2696 109ZM2564 -47L2600 -11L2564 -47ZM2612 1L2672 61L2612 1ZM2684 73L2696 85L2684 73ZM2552 -11L2564 1L2552 -11ZM2576 13L2684 121L2576 13ZM2612 -47L2780 121L2612 -47ZM2300 -47L2312 -35L2300 -47ZM2360 13L2372 25L2360 13ZM2384 37L2408 61L2384 37ZM2432 85L2456 109L2432 85ZM2252 -23L2276 1L2252 -23ZM2300 25L2348 73L2300 25ZM2360 85L2372 97L2360 85ZM2384 109L2396 121L2384 109ZM2180 -47L2216 -11L2180 -47ZM2228 1L2252 25L2228 1ZM2276 49L2288 61L2276 49ZM2312 85L2348 121L2312 85ZM2276 -47L2288 -35L2276 -47ZM2300 -23L2336 13L2300 -23ZM2348 25L2372 49L2348 25ZM2396 73L2420 97L2396 73ZM2252 -47L2264 -35L2252 -47ZM2276 -23L2288 -11L2276 -23ZM2300 1L2312 13L2300 1ZM2324 25L2336 37L2324 25ZM2384 85L2396 97L2384 85ZM2408 109L2420 121L2408 109ZM2216 -35L2240 -11L2216 -35ZM2264 13L2288 37L2264 13ZM2312 61L2324 73L2312 61ZM2336 85L2348 97L2336 85ZM2360 109L2372 121L2360 109ZM2504 37L2516 49L2504 37ZM2528 61L2552 85L2528 61ZM2564 97L2588 121L2564 97ZM2036 -47L2204 121L2036 -47ZM2096 -11L2108 1L2096 -11ZM2120 13L2144 37L2120 13ZM2168 61L2192 85L2168 61ZM2216 109L2228 121L2216 109ZM2084 -47L2108 -23L2084 -47ZM2120 -11L2144 13L2120 -11ZM2156 25L2168 37L2156 25ZM2216 85L2228 97L2216 85ZM2108 -47L2168 13L2108 -47ZM2180 25L2228 73L2180 25ZM2240 85L2264 109L2240 85ZM2156 -23L2300 121L2156 -23ZM2156 -47L2168 -35L2156 -47ZM2216 13L2228 25L2216 13ZM2240 37L2252 49L2240 37ZM2264 61L2288 85L2264 61ZM2612 -23L2624 -11L2612 -23ZM2636 1L2648 13L2636 1ZM2660 25L2672 37L2660 25ZM2684 49L2696 61L2684 49ZM2720 85L2744 109L2720 85ZM2900 -47L3068 121L2900 -47ZM2756 -47L2792 -11L2756 -47ZM2804 1L2828 25L2804 1ZM2852 49L2864 61L2852 49ZM2888 85L2924 121L2888 85ZM2684 -47L2744 13L2684 -47ZM2756 25L2804 73L2756 25ZM2816 85L2840 109L2816 85ZM2732 -23L2876 121L2732 -23ZM2732 -47L2744 -35L2732 -47ZM2792 13L2804 25L2792 13ZM2816 37L2828 49L2816 37ZM2840 61L2864 85L2840 61ZM2792 -35L2816 -11L2792 -35ZM2840 13L2864 37L2840 13ZM2888 61L2900 73L2888 61ZM2912 85L2924 97L2912 85ZM2852 -47L2864 -35L2852 -47ZM2876 -23L2912 13L2876 -23ZM2924 25L2948 49L2924 25ZM2972 73L2984 85L2972 73ZM2672 -11L2684 1L2672 -11ZM2696 13L2720 37L2696 13ZM2744 61L2768 85L2744 61ZM2792 109L2804 121L2792 109ZM2828 -23L2852 1L2828 -23ZM2876 25L2924 73L2876 25ZM2936 85L2972 121L2936 85ZM2828 -47L2840 -35L2828 -47ZM2852 -23L2864 -11L2852 -23ZM2876 1L2888 13L2876 1ZM2900 25L2912 37L2900 25ZM2948 73L2960 85L2948 73ZM2972 97L2996 121L2972 97ZM2876 -47L2888 -35L2876 -47ZM2936 13L2948 25L2936 13ZM2960 37L2972 49L2960 37ZM2984 61L3032 109L2984 61ZM2660 -47L2684 -23L2660 -47ZM2696 -11L2720 13L2696 -11ZM2732 25L2744 37L2732 25ZM2792 85L2804 97L2792 85ZM1604 -47L1640 -11L1604 -47ZM1652 1L1676 25L1652 1ZM1700 49L1712 61L1700 49ZM1736 85L1772 121L1736 85ZM1532 -47L1592 13L1532 -47ZM1604 25L1652 73L1604 25ZM1664 85L1688 109L1664 85ZM1580 -23L1724 121L1580 -23ZM1580 -47L1592 -35L1580 -47ZM1640 13L1652 25L1640 13ZM1664 37L1676 49L1664 37ZM1688 61L1712 85L1688 61ZM1640 -35L1664 -11L1640 -35ZM1688 13L1712 37L1688 13ZM1736 61L1748 73L1736 61ZM1760 85L1772 97L1760 85ZM1700 -47L1712 -35L1700 -47ZM1724 -23L1760 13L1724 -23ZM1772 25L1796 49L1772 25ZM1820 73L1832 85L1820 73ZM1748 -47L1916 121L1748 -47ZM1520 -11L1532 1L1520 -11ZM1544 13L1568 37L1544 13ZM1592 61L1616 85L1592 61ZM1640 109L1652 121L1640 109ZM1676 -23L1700 1L1676 -23ZM1724 25L1772 73L1724 25ZM1784 85L1820 121L1784 85ZM1676 -47L1688 -35L1676 -47ZM1700 -23L1712 -11L1700 -23ZM1724 1L1736 13L1724 1ZM1748 25L1760 37L1748 25ZM1796 73L1808 85L1796 73ZM1820 97L1844 121L1820 97ZM1724 -47L1736 -35L1724 -47ZM1784 13L1796 25L1784 13ZM1808 37L1820 49L1808 37ZM1832 61L1880 109L1832 61ZM1508 -47L1532 -23L1508 -47ZM1544 -11L1568 13L1544 -11ZM1580 25L1592 37L1580 25ZM1640 85L1652 97L1640 85ZM1892 -47L1928 -11L1892 -47ZM1940 1L1964 25L1940 1ZM1976 37L2060 121L1976 37ZM1820 -47L1880 13L1820 -47ZM1892 25L1952 85L1892 25ZM1964 97L1976 109L1964 97ZM1868 -23L1952 61L1868 -23ZM1988 97L2000 109L1988 97ZM1868 -47L1880 -35L1868 -47ZM1928 13L1940 25L1928 13ZM1952 37L1964 49L1952 37ZM1976 61L2000 85L1976 61ZM2012 97L2024 109L2012 97ZM1928 -35L1952 -11L1928 -35ZM1976 13L1988 25L1976 13ZM2000 37L2048 85L2000 37ZM1988 -47L2000 -35L1988 -47ZM2012 -23L2024 -11L2012 -23ZM2036 1L2096 61L2036 1ZM2108 73L2120 85L2108 73ZM1808 -11L1820 1L1808 -11ZM1832 13L1856 37L1832 13ZM1880 61L1904 85L1880 61ZM1928 109L1940 121L1928 109ZM1964 -23L1988 1L1964 -23ZM2000 13L2108 121L2000 13ZM1964 -47L1976 -35L1964 -47ZM1988 -23L2000 -11L1988 -23ZM2024 13L2036 25L2024 13ZM2048 37L2060 49L2048 37ZM2072 61L2096 85L2072 61ZM2120 109L2132 121L2120 109ZM2012 -47L2024 -35L2012 -47ZM2036 -23L2048 -11L2036 -23ZM2060 1L2072 13L2060 1ZM2084 25L2096 37L2084 25ZM2108 49L2120 61L2108 49ZM2144 85L2168 109L2144 85ZM1796 -47L1820 -23L1796 -47ZM1832 -11L1856 13L1832 -11ZM1868 25L1880 37L1868 25ZM3476 -47L3560 37L3476 -47ZM3572 49L3596 73L3572 49ZM3608 85L3644 121L3608 85ZM3332 -47L3368 -11L3332 -47ZM3380 1L3404 25L3380 1ZM3428 49L3440 61L3428 49ZM3464 85L3500 121L3464 85ZM3188 -47L3356 121L3188 -47ZM3260 -47L3320 13L3260 -47ZM3332 25L3380 73L3332 25ZM3392 85L3416 109L3392 85ZM3308 -23L3452 121L3308 -23ZM3308 -47L3320 -35L3308 -47ZM3368 13L3380 25L3368 13ZM3392 37L3404 49L3392 37ZM3416 61L3440 85L3416 61ZM3368 -35L3392 -11L3368 -35ZM3416 13L3440 37L3416 13ZM3464 61L3476 73L3464 61ZM3488 85L3500 97L3488 85ZM3512 109L3524 121L3512 109ZM3428 -47L3440 -35L3428 -47ZM3452 -23L3488 13L3452 -23ZM3500 25L3524 49L3500 25ZM3548 73L3572 97L3548 73ZM3248 -11L3260 1L3248 -11ZM3272 13L3296 37L3272 13ZM3320 61L3344 85L3320 61ZM3368 109L3380 121L3368 109ZM3404 -23L3428 1L3404 -23ZM3452 25L3500 73L3452 25ZM3512 85L3524 97L3512 85ZM3536 109L3548 121L3536 109ZM3404 -47L3416 -35L3404 -47ZM3428 -23L3440 -11L3428 -23ZM3452 1L3464 13L3452 1ZM3476 25L3488 37L3476 25ZM3536 85L3548 97L3536 85ZM3560 109L3572 121L3560 109ZM3452 -47L3464 -35L3452 -47ZM3512 13L3524 25L3512 13ZM3536 37L3560 61L3536 37ZM3584 85L3608 109L3584 85ZM3236 -47L3260 -23L3236 -47ZM3272 -11L3296 13L3272 -11ZM3308 25L3320 37L3308 25ZM3368 85L3380 97L3368 85ZM3044 -47L3080 -11L3044 -47ZM3092 1L3116 25L3092 1ZM3128 37L3212 121L3128 37ZM2972 -47L3032 13L2972 -47ZM3044 25L3104 85L3044 25ZM3116 97L3128 109L3116 97ZM3020 -23L3104 61L3020 -23ZM3140 97L3152 109L3140 97ZM3020 -47L3032 -35L3020 -47ZM3080 13L3092 25L3080 13ZM3104 37L3116 49L3104 37ZM3128 61L3152 85L3128 61ZM3164 97L3176 109L3164 97ZM3080 -35L3104 -11L3080 -35ZM3128 13L3140 25L3128 13ZM3152 37L3200 85L3152 37ZM3140 -47L3152 -35L3140 -47ZM3164 -23L3176 -11L3164 -23ZM3188 1L3248 61L3188 1ZM3260 73L3272 85L3260 73ZM2960 -11L2972 1L2960 -11ZM2984 13L3008 37L2984 13ZM3032 61L3056 85L3032 61ZM3080 109L3092 121L3080 109ZM3116 -23L3140 1L3116 -23ZM3152 13L3260 121L3152 13ZM3116 -47L3128 -35L3116 -47ZM3140 -23L3152 -11L3140 -23ZM3176 13L3188 25L3176 13ZM3200 37L3212 49L3200 37ZM3224 61L3248 85L3224 61ZM3272 109L3284 121L3272 109ZM3164 -47L3176 -35L3164 -47ZM3188 -23L3200 -11L3188 -23ZM3212 1L3224 13L3212 1ZM3236 25L3248 37L3236 25ZM3260 49L3272 61L3260 49ZM3296 85L3320 109L3296 85ZM2948 -47L2972 -23L2948 -47ZM2984 -11L3008 13L2984 -11ZM3020 25L3032 37L3020 25ZM3512 -35L3524 -23L3512 -35ZM3536 -11L3560 13L3536 -11ZM3572 25L3584 37L3572 25ZM3596 49L3608 61L3596 49ZM3656 109L3668 121L3656 109ZM3536 -35L3548 -23L3536 -35ZM3584 13L3668 97L3584 13ZM3560 -35L3572 -23L3560 -35ZM3584 -11L3644 49L3584 -11ZM3656 61L3716 121L3656 61ZM3596 -47L3608 -35L3596 -47ZM3632 -11L3656 13L3632 -11ZM3680 37L3704 61L3680 37ZM3716 73L3728 85L3716 73ZM3620 -47L3788 121L3620 -47ZM3656 -35L3704 13L3656 -35ZM3728 37L3776 85L3728 37ZM3692 -47L3716 -23L3692 -47ZM3728 -11L3740 1L3728 -11ZM3752 13L3764 25L3752 13ZM3776 37L3788 49L3776 37ZM3800 61L3824 85L3800 61ZM3848 109L3860 121L3848 109ZM3716 -47L3752 -11L3716 -47ZM3764 1L3824 61L3764 1ZM3836 73L3848 85L3836 73ZM3704 -11L3716 1L3704 -11ZM3728 13L3836 121L3728 13ZM3764 -47L3860 49L3764 -47ZM3656 37L3668 49L3656 37ZM3680 61L3704 85L3680 61ZM3716 97L3740 121L3716 97ZM3764 -23L3776 -11L3764 -23ZM3788 1L3800 13L3788 1ZM3812 25L3824 37L3812 25ZM3836 49L3848 61L3836 49ZM3824 -11L3836 1L3824 -11ZM3848 13L3860 25L3848 13ZM3812 -47L3836 -23L3812 -47ZM3848 -11L3860 1L3848 -11ZM3836 -47L3860 -23L3836 -47ZM-16 13L44 -47L-16 13ZM-4 25L8 13L-4 25ZM44 -23L56 -35L44 -23ZM-16 61L8 37L-16 61ZM20 25L56 -11L20 25ZM68 -23L92 -47L68 -23ZM-16 85L44 25L-16 85ZM56 13L68 1L56 13ZM80 -11L92 -23L80 -11ZM104 -35L116 -47L104 -35ZM-16 109L20 73L-16 109ZM56 37L68 25L56 37ZM80 13L140 -47L80 13ZM32 85L80 37L32 85ZM104 13L152 -35L104 13ZM20 121L188 -47L20 121ZM44 121L56 109L44 121ZM68 97L80 85L68 97ZM92 73L104 61L92 73ZM116 49L128 37L116 49ZM152 13L176 -11L152 13ZM188 -23L200 -35L188 -23ZM68 121L128 61L68 121ZM140 49L152 37L140 49ZM188 1L200 -11L188 1ZM212 -23L236 -47L212 -23ZM104 109L116 97L104 109ZM128 85L152 61L128 85ZM176 37L200 13L176 37ZM248 -35L260 -47L248 -35ZM116 121L224 13L116 121ZM236 1L260 -23L236 1ZM272 -35L284 -47L272 -35ZM140 121L152 109L140 121ZM200 61L224 37L200 61ZM236 25L248 13L236 25ZM260 1L272 -11L260 1ZM164 121L200 85L164 121ZM224 61L236 49L224 61ZM248 37L332 -47L248 37ZM188 121L200 109L188 121ZM212 97L224 85L212 97ZM248 61L260 49L248 61ZM272 37L296 13L272 37ZM308 1L320 -11L308 1ZM212 121L260 73L212 121ZM308 25L320 13L308 25ZM332 1L368 -35L332 1ZM248 109L260 97L248 109ZM272 85L296 61L272 85ZM308 49L320 37L308 49ZM332 25L344 13L332 25ZM356 1L368 -11L356 1ZM380 -23L392 -35L380 -23ZM272 109L296 85L272 109ZM332 49L356 25L332 49ZM380 1L428 -47L380 1ZM308 121L344 85L308 121ZM356 73L380 49L356 73ZM404 25L416 13L404 25ZM440 -11L476 -47L440 -11ZM452 121L620 -47L452 121ZM380 121L428 73L380 121ZM440 61L464 37L440 61ZM488 13L512 -11L488 13ZM524 -23L536 -35L524 -23ZM356 121L524 -47L356 121ZM368 85L380 73L368 85ZM392 61L404 49L392 61ZM416 37L440 13L416 37ZM488 -35L500 -47L488 -35ZM320 85L344 61L320 85ZM368 37L392 13L368 37ZM416 -11L428 -23L416 -11ZM440 -35L452 -47L440 -35ZM428 121L440 109L428 121ZM464 85L488 61L464 85ZM512 37L524 25L512 37ZM536 13L548 1L536 13ZM560 -11L572 -23L560 -11ZM584 -35L596 -47L584 -35ZM-16 -11L-4 -23L-16 -11ZM8 -35L20 -47L8 -35ZM440 85L452 73L440 85ZM488 37L500 25L488 37ZM512 13L572 -47L512 13ZM1028 121L1196 -47L1028 121ZM884 121L920 85L884 121ZM932 73L956 49L932 73ZM980 25L992 13L980 25ZM1016 -11L1052 -47L1016 -11ZM1004 121L1016 109L1004 121ZM1040 85L1064 61L1040 85ZM1088 37L1100 25L1088 37ZM1112 13L1124 1L1112 13ZM1136 -11L1148 -23L1136 -11ZM1160 -35L1172 -47L1160 -35ZM1016 85L1028 73L1016 85ZM1064 37L1076 25L1064 37ZM1088 13L1148 -47L1088 13ZM956 121L1004 73L956 121ZM1016 61L1040 37L1016 61ZM1064 13L1088 -11L1064 13ZM1100 -23L1112 -35L1100 -23ZM932 121L1100 -47L932 121ZM944 85L956 73L944 85ZM968 61L980 49L968 61ZM992 37L1016 13L992 37ZM1064 -35L1076 -47L1064 -35ZM872 109L884 97L872 109ZM896 85L920 61L896 85ZM944 37L968 13L944 37ZM992 -11L1004 -23L992 -11ZM1016 -35L1028 -47L1016 -35ZM836 121L860 97L836 121ZM908 49L932 25L908 49ZM956 1L1004 -47L956 1ZM812 121L824 109L812 121ZM836 97L848 85L836 97ZM860 73L872 61L860 73ZM884 49L896 37L884 49ZM908 25L920 13L908 25ZM932 1L944 -11L932 1ZM956 -23L968 -35L956 -23ZM788 121L848 61L788 121ZM884 25L896 13L884 25ZM908 1L944 -35L908 1ZM740 121L908 -47L740 121ZM596 121L680 37L596 121ZM692 25L704 13L692 25ZM728 -11L764 -47L728 -11ZM728 109L740 97L728 109ZM752 85L776 61L752 85ZM800 37L812 25L800 37ZM824 13L836 1L824 13ZM848 -11L860 -23L848 -11ZM872 -35L884 -47L872 -35ZM692 121L716 97L692 121ZM728 85L740 73L728 85ZM776 37L788 25L776 37ZM800 13L860 -47L800 13ZM668 121L680 109L668 121ZM728 61L752 37L728 61ZM776 13L800 -11L776 13ZM812 -23L824 -35L812 -23ZM644 121L656 109L644 121ZM668 97L692 73L668 97ZM704 61L812 -47L704 61ZM656 85L668 73L656 85ZM680 61L692 49L680 61ZM704 37L728 13L704 37ZM776 -35L788 -47L776 -35ZM608 85L656 37L608 85ZM668 25L680 13L668 25ZM704 -11L716 -23L704 -11ZM728 -35L740 -47L728 -35ZM548 121L596 73L548 121ZM632 37L644 25L632 37ZM668 1L716 -47L668 1ZM524 121L548 97L524 121ZM560 85L620 25L560 85ZM632 13L656 -11L632 13ZM668 -23L680 -35L668 -23ZM536 85L548 73L536 85ZM560 61L584 37L560 61ZM596 25L656 -35L596 25ZM776 109L824 61L776 109ZM848 37L872 13L848 37ZM884 1L896 -11L884 1ZM488 109L512 85L488 109ZM536 61L560 37L536 61ZM572 25L584 13L572 25ZM1064 109L1088 85L1064 109ZM1112 61L1136 37L1112 61ZM1148 25L1160 13L1148 25ZM1196 -23L1208 -35L1196 -23ZM1112 85L1124 73L1112 85ZM1136 61L1160 37L1136 61ZM1172 25L1208 -11L1172 25ZM1220 -23L1244 -47L1220 -23ZM1100 121L1124 97L1100 121ZM1136 85L1196 25L1136 85ZM1208 13L1220 1L1208 13ZM1232 -11L1244 -23L1232 -11ZM1256 -35L1268 -47L1256 -35ZM1124 121L1172 73L1124 121ZM1208 37L1220 25L1208 37ZM1232 13L1292 -47L1232 13ZM1184 85L1232 37L1184 85ZM1256 13L1304 -35L1256 13ZM1172 121L1340 -47L1172 121ZM1196 121L1208 109L1196 121ZM1220 97L1232 85L1220 97ZM1244 73L1256 61L1244 73ZM1268 49L1280 37L1268 49ZM1304 13L1328 -11L1304 13ZM1340 -23L1352 -35L1340 -23ZM1220 121L1280 61L1220 121ZM1292 49L1304 37L1292 49ZM1340 1L1352 -11L1340 1ZM1364 -23L1388 -47L1364 -23ZM1256 109L1268 97L1256 109ZM1280 85L1304 61L1280 85ZM1328 37L1352 13L1328 37ZM1400 -35L1412 -47L1400 -35ZM1268 121L1376 13L1268 121ZM1388 1L1412 -23L1388 1ZM1424 -35L1436 -47L1424 -35ZM1292 121L1304 109L1292 121ZM1352 61L1376 37L1352 61ZM1388 25L1400 13L1388 25ZM1412 1L1424 -11L1412 1ZM1316 121L1352 85L1316 121ZM1376 61L1388 49L1376 61ZM1400 37L1484 -47L1400 37ZM1340 121L1352 109L1340 121ZM1364 97L1376 85L1364 97ZM1400 61L1412 49L1400 61ZM1424 37L1448 13L1424 37ZM1460 1L1472 -11L1460 1ZM1364 121L1412 73L1364 121ZM1460 25L1472 13L1460 25ZM1484 1L1520 -35L1484 1ZM1400 109L1412 97L1400 109ZM1424 85L1448 61L1424 85ZM1460 49L1472 37L1460 49ZM1484 25L1496 13L1484 25ZM1508 1L1520 -11L1508 1ZM1532 -23L1544 -35L1532 -23ZM1424 109L1448 85L1424 109ZM1484 49L1508 25L1484 49ZM1532 1L1580 -47L1532 1ZM1460 121L1496 85L1460 121ZM1508 73L1532 49L1508 73ZM1556 25L1568 13L1556 25ZM1592 -11L1628 -47L1592 -11ZM1604 121L1772 -47L1604 121ZM1532 121L1580 73L1532 121ZM1592 61L1616 37L1592 61ZM1640 13L1664 -11L1640 13ZM1676 -23L1688 -35L1676 -23ZM1508 121L1676 -47L1508 121ZM1520 85L1532 73L1520 85ZM1544 61L1556 49L1544 61ZM1568 37L1592 13L1568 37ZM1640 -35L1652 -47L1640 -35ZM1472 85L1496 61L1472 85ZM1520 37L1544 13L1520 37ZM1568 -11L1580 -23L1568 -11ZM1592 -35L1604 -47L1592 -35ZM1580 121L1592 109L1580 121ZM1616 85L1640 61L1616 85ZM1664 37L1676 25L1664 37ZM1688 13L1700 1L1688 13ZM1712 -11L1724 -23L1712 -11ZM1736 -35L1748 -47L1736 -35ZM2180 121L2348 -47L2180 121ZM2216 109L2240 85L2216 109ZM2264 61L2288 37L2264 61ZM2300 25L2312 13L2300 25ZM2348 -23L2360 -35L2348 -23ZM2264 85L2276 73L2264 85ZM2288 61L2312 37L2288 61ZM2324 25L2360 -11L2324 25ZM2372 -23L2396 -47L2372 -23ZM2252 121L2276 97L2252 121ZM2288 85L2348 25L2288 85ZM2360 13L2372 1L2360 13ZM2384 -11L2396 -23L2384 -11ZM2408 -35L2420 -47L2408 -35ZM2276 121L2324 73L2276 121ZM2360 37L2372 25L2360 37ZM2384 13L2444 -47L2384 13ZM2336 85L2384 37L2336 85ZM2408 13L2456 -35L2408 13ZM2324 121L2492 -47L2324 121ZM2348 121L2360 109L2348 121ZM2372 97L2384 85L2372 97ZM2396 73L2408 61L2396 73ZM2420 49L2432 37L2420 49ZM2456 13L2480 -11L2456 13ZM2492 -23L2504 -35L2492 -23ZM2372 121L2432 61L2372 121ZM2444 49L2456 37L2444 49ZM2492 1L2504 -11L2492 1ZM2516 -23L2540 -47L2516 -23ZM2408 109L2420 97L2408 109ZM2432 85L2456 61L2432 85ZM2480 37L2504 13L2480 37ZM2552 -35L2564 -47L2552 -35ZM2420 121L2528 13L2420 121ZM2540 1L2564 -23L2540 1ZM2576 -35L2588 -47L2576 -35ZM2444 121L2456 109L2444 121ZM2504 61L2528 37L2504 61ZM2540 25L2552 13L2540 25ZM2564 1L2576 -11L2564 1ZM2468 121L2504 85L2468 121ZM2528 61L2540 49L2528 61ZM2552 37L2636 -47L2552 37ZM2492 121L2504 109L2492 121ZM2516 97L2528 85L2516 97ZM2552 61L2564 49L2552 61ZM2576 37L2600 13L2576 37ZM2612 1L2624 -11L2612 1ZM2516 121L2564 73L2516 121ZM2612 25L2624 13L2612 25ZM2636 1L2672 -35L2636 1ZM2552 109L2564 97L2552 109ZM2576 85L2600 61L2576 85ZM2612 49L2624 37L2612 49ZM2636 25L2648 13L2636 25ZM2660 1L2672 -11L2660 1ZM2684 -23L2696 -35L2684 -23ZM2576 109L2600 85L2576 109ZM2636 49L2660 25L2636 49ZM2684 1L2732 -47L2684 1ZM2612 121L2648 85L2612 121ZM2660 73L2684 49L2660 73ZM2708 25L2720 13L2708 25ZM2744 -11L2780 -47L2744 -11ZM2756 121L2924 -47L2756 121ZM2684 121L2732 73L2684 121ZM2744 61L2768 37L2744 61ZM2792 13L2816 -11L2792 13ZM2828 -23L2840 -35L2828 -23ZM2660 121L2828 -47L2660 121ZM2672 85L2684 73L2672 85ZM2696 61L2708 49L2696 61ZM2720 37L2744 13L2720 37ZM2792 -35L2804 -47L2792 -35ZM2624 85L2648 61L2624 85ZM2672 37L2696 13L2672 37ZM2720 -11L2732 -23L2720 -11ZM2744 -35L2756 -47L2744 -35ZM2732 121L2744 109L2732 121ZM2768 85L2792 61L2768 85ZM2816 37L2828 25L2816 37ZM2840 13L2852 1L2840 13ZM2864 -11L2876 -23L2864 -11ZM2888 -35L2900 -47L2888 -35ZM1892 121L2060 -47L1892 121ZM2036 121L2072 85L2036 121ZM2084 73L2108 49L2084 73ZM2132 25L2144 13L2132 25ZM2168 -11L2204 -47L2168 -11ZM2156 121L2168 109L2156 121ZM2192 85L2216 61L2192 85ZM2240 37L2252 25L2240 37ZM2264 13L2276 1L2264 13ZM2288 -11L2300 -23L2288 -11ZM2312 -35L2324 -47L2312 -35ZM2168 85L2180 73L2168 85ZM2216 37L2228 25L2216 37ZM2240 13L2300 -47L2240 13ZM2108 121L2156 73L2108 121ZM2168 61L2192 37L2168 61ZM2216 13L2240 -11L2216 13ZM2252 -23L2264 -35L2252 -23ZM2084 121L2252 -47L2084 121ZM2096 85L2108 73L2096 85ZM2120 61L2132 49L2120 61ZM2144 37L2168 13L2144 37ZM2216 -35L2228 -47L2216 -35ZM2024 109L2036 97L2024 109ZM2048 85L2072 61L2048 85ZM2096 37L2120 13L2096 37ZM2144 -11L2156 -23L2144 -11ZM2168 -35L2180 -47L2168 -35ZM1988 121L2012 97L1988 121ZM2060 49L2084 25L2060 49ZM2108 1L2156 -47L2108 1ZM1964 121L1976 109L1964 121ZM1988 97L2000 85L1988 97ZM2012 73L2024 61L2012 73ZM2036 49L2048 37L2036 49ZM2060 25L2072 13L2060 25ZM2084 1L2096 -11L2084 1ZM2108 -23L2120 -35L2108 -23ZM1940 121L2000 61L1940 121ZM2036 25L2048 13L2036 25ZM2060 1L2096 -35L2060 1ZM2744 85L2756 73L2744 85ZM2792 37L2804 25L2792 37ZM2816 13L2876 -47L2816 13ZM1592 85L1604 73L1592 85ZM1640 37L1652 25L1640 37ZM1664 13L1724 -47L1664 13ZM1748 121L1832 37L1748 121ZM1844 25L1856 13L1844 25ZM1880 -11L1916 -47L1880 -11ZM1880 109L1892 97L1880 109ZM1904 85L1928 61L1904 85ZM1952 37L1964 25L1952 37ZM1976 13L1988 1L1976 13ZM2000 -11L2012 -23L2000 -11ZM2024 -35L2036 -47L2024 -35ZM1844 121L1868 97L1844 121ZM1880 85L1892 73L1880 85ZM1928 37L1940 25L1928 37ZM1952 13L2012 -47L1952 13ZM1820 121L1832 109L1820 121ZM1880 61L1904 37L1880 61ZM1928 13L1952 -11L1928 13ZM1964 -23L1976 -35L1964 -23ZM1796 121L1808 109L1796 121ZM1820 97L1844 73L1820 97ZM1856 61L1964 -47L1856 61ZM1808 85L1820 73L1808 85ZM1832 61L1844 49L1832 61ZM1856 37L1880 13L1856 37ZM1928 -35L1940 -47L1928 -35ZM1760 85L1808 37L1760 85ZM1820 25L1832 13L1820 25ZM1856 -11L1868 -23L1856 -11ZM1880 -35L1892 -47L1880 -35ZM1700 121L1748 73L1700 121ZM1784 37L1796 25L1784 37ZM1820 1L1868 -47L1820 1ZM1676 121L1700 97L1676 121ZM1712 85L1772 25L1712 85ZM1784 13L1808 -11L1784 13ZM1820 -23L1832 -35L1820 -23ZM1688 85L1700 73L1688 85ZM1712 61L1736 37L1712 61ZM1748 25L1808 -35L1748 25ZM1928 109L1976 61L1928 109ZM2000 37L2024 13L2000 37ZM2036 1L2048 -11L2036 1ZM1640 109L1664 85L1640 109ZM1688 61L1712 37L1688 61ZM1724 25L1736 13L1724 25ZM3332 121L3500 -47L3332 121ZM3188 121L3224 85L3188 121ZM3236 73L3260 49L3236 73ZM3284 25L3296 13L3284 25ZM3320 -11L3356 -47L3320 -11ZM3308 121L3320 109L3308 121ZM3344 85L3368 61L3344 85ZM3392 37L3404 25L3392 37ZM3416 13L3428 1L3416 13ZM3440 -11L3452 -23L3440 -11ZM3464 -35L3476 -47L3464 -35ZM3320 85L3332 73L3320 85ZM3368 37L3380 25L3368 37ZM3392 13L3452 -47L3392 13ZM3260 121L3308 73L3260 121ZM3320 61L3344 37L3320 61ZM3368 13L3392 -11L3368 13ZM3404 -23L3416 -35L3404 -23ZM3236 121L3404 -47L3236 121ZM3248 85L3260 73L3248 85ZM3272 61L3284 49L3272 61ZM3296 37L3320 13L3296 37ZM3368 -35L3380 -47L3368 -35ZM3176 109L3188 97L3176 109ZM3200 85L3224 61L3200 85ZM3248 37L3272 13L3248 37ZM3296 -11L3308 -23L3296 -11ZM3320 -35L3332 -47L3320 -35ZM3140 121L3164 97L3140 121ZM3212 49L3236 25L3212 49ZM3260 1L3308 -47L3260 1ZM3116 121L3128 109L3116 121ZM3140 97L3152 85L3140 97ZM3164 73L3176 61L3164 73ZM3188 49L3200 37L3188 49ZM3212 25L3224 13L3212 25ZM3236 1L3248 -11L3236 1ZM3260 -23L3272 -35L3260 -23ZM3092 121L3152 61L3092 121ZM3188 25L3200 13L3188 25ZM3212 1L3248 -35L3212 1ZM3044 121L3212 -47L3044 121ZM2900 121L2984 37L2900 121ZM2996 25L3008 13L2996 25ZM3032 -11L3068 -47L3032 -11ZM3032 109L3044 97L3032 109ZM3056 85L3080 61L3056 85ZM3104 37L3116 25L3104 37ZM3128 13L3140 1L3128 13ZM3152 -11L3164 -23L3152 -11ZM3176 -35L3188 -47L3176 -35ZM2996 121L3020 97L2996 121ZM3032 85L3044 73L3032 85ZM3080 37L3092 25L3080 37ZM3104 13L3164 -47L3104 13ZM2972 121L2984 109L2972 121ZM3032 61L3056 37L3032 61ZM3080 13L3104 -11L3080 13ZM3116 -23L3128 -35L3116 -23ZM2948 121L2960 109L2948 121ZM2972 97L2996 73L2972 97ZM3008 61L3116 -47L3008 61ZM2960 85L2972 73L2960 85ZM2984 61L2996 49L2984 61ZM3008 37L3032 13L3008 37ZM3080 -35L3092 -47L3080 -35ZM2912 85L2960 37L2912 85ZM2972 25L2984 13L2972 25ZM3008 -11L3020 -23L3008 -11ZM3032 -35L3044 -47L3032 -35ZM2852 121L2900 73L2852 121ZM2936 37L2948 25L2936 37ZM2972 1L3020 -47L2972 1ZM2828 121L2852 97L2828 121ZM2864 85L2924 25L2864 85ZM2936 13L2960 -11L2936 13ZM2972 -23L2984 -35L2972 -23ZM2840 85L2852 73L2840 85ZM2864 61L2888 37L2864 61ZM2900 25L2960 -35L2900 25ZM3080 109L3128 61L3080 109ZM3152 37L3176 13L3152 37ZM3188 1L3200 -11L3188 1ZM2792 109L2816 85L2792 109ZM2840 61L2864 37L2840 61ZM2876 25L2888 13L2876 25ZM3368 109L3392 85L3368 109ZM3416 61L3440 37L3416 61ZM3452 25L3464 13L3452 25ZM3500 -23L3512 -35L3500 -23ZM3416 85L3428 73L3416 85ZM3440 61L3464 37L3440 61ZM3476 25L3512 -11L3476 25ZM3524 -23L3548 -47L3524 -23ZM3404 121L3428 97L3404 121ZM3440 85L3500 25L3440 85ZM3512 13L3524 1L3512 13ZM3536 -11L3548 -23L3536 -11ZM3560 -35L3572 -47L3560 -35ZM3428 121L3476 73L3428 121ZM3512 37L3524 25L3512 37ZM3536 13L3596 -47L3536 13ZM3488 85L3536 37L3488 85ZM3560 13L3608 -35L3560 13ZM3476 121L3644 -47L3476 121ZM3500 121L3512 109L3500 121ZM3524 97L3536 85L3524 97ZM3548 73L3560 61L3548 73ZM3572 49L3584 37L3572 49ZM3608 13L3632 -11L3608 13ZM3644 -23L3656 -35L3644 -23ZM3524 121L3584 61L3524 121ZM3596 49L3608 37L3596 49ZM3644 1L3656 -11L3644 1ZM3668 -23L3692 -47L3668 -23ZM3560 109L3572 97L3560 109ZM3584 85L3608 61L3584 85ZM3632 37L3656 13L3632 37ZM3704 -35L3716 -47L3704 -35ZM3572 121L3680 13L3572 121ZM3692 1L3716 -23L3692 1ZM3728 -35L3740 -47L3728 -35ZM3596 121L3608 109L3596 121ZM3656 61L3680 37L3656 61ZM3692 25L3704 13L3692 25ZM3716 1L3728 -11L3716 1ZM3620 121L3656 85L3620 121ZM3680 61L3692 49L3680 61ZM3704 37L3788 -47L3704 37ZM3644 121L3656 109L3644 121ZM3668 97L3680 85L3668 97ZM3704 61L3716 49L3704 61ZM3728 37L3752 13L3728 37ZM3764 1L3776 -11L3764 1ZM3668 121L3716 73L3668 121ZM3764 25L3776 13L3764 25ZM3788 1L3824 -35L3788 1ZM3704 109L3716 97L3704 109ZM3728 85L3752 61L3728 85ZM3764 49L3776 37L3764 49ZM3788 25L3800 13L3788 25ZM3812 1L3824 -11L3812 1ZM3836 -23L3848 -35L3836 -23ZM3728 109L3752 85L3728 109ZM3788 49L3812 25L3788 49ZM3836 1L3860 -23L3836 1ZM3764 121L3800 85L3764 121ZM3812 73L3836 49L3812 73ZM3824 85L3836 73L3824 85ZM3848 61L3860 49L3848 61ZM3776 85L3800 61L3776 85ZM3824 37L3848 13L3824 37ZM3812 121L3860 73L3812 121Z" stroke="#393534" stroke-width="5" stroke-linecap="round" stroke-linejoin="round"/>
</g>
</g>
<defs>
<clipPath id="clip0_250_93">
<rect width="3840" height="94" fill="white"/>
</clipPath>
<clipPath id="clip1_250_93">
<rect width="3840" height="128" fill="white" transform="translate(0 -23)"/>
</clipPath>
</defs>
</svg>
