<svg width="686" height="90" viewBox="0 0 686 90" fill="none" xmlns="http://www.w3.org/2000/svg">
<circle cx="45" cy="45" r="45" fill="#FFCF56"/>
<path d="M27.9848 57.8271L6.93921 48.2984V41.7474L27.9848 32.1729V38.4032L15.3574 43.9464C14.7474 44.2212 14.1069 44.4503 13.4359 44.6335C12.7649 44.8168 12.2311 44.9389 11.8346 45C12.2311 45.0611 12.7649 45.1833 13.4359 45.3665C14.1069 45.5192 14.7474 45.733 15.3574 46.0079L27.9848 51.551V57.8271Z" fill="#272D2D"/>
<path d="M61.8049 57.8271V51.5968L74.4322 46.0537C75.0422 45.7788 75.6827 45.5497 76.3538 45.3665C77.0248 45.1833 77.5585 45.0611 77.9551 45C77.5585 44.9389 77.0248 44.832 76.3538 44.6793C75.6827 44.4961 75.0422 44.267 74.4322 43.9922L61.8049 38.449V32.1729L82.8504 41.7016V48.2526L61.8049 57.8271Z" fill="#272D2D"/>
<path d="M34.486 29.229H55.4853V60.5181H34.486V29.229Z" fill="#272D2D"/>
<path d="M150.738 55.2283C150.738 54.3083 150.163 53.5723 149.013 53.0203C147.909 52.4683 146.529 51.9623 144.873 51.5023C143.217 51.0423 141.4 50.5823 139.422 50.1223C137.444 49.6163 135.627 48.9493 133.971 48.1213C132.315 47.2473 130.912 46.1663 129.762 44.8783C128.658 43.5443 128.106 41.8423 128.106 39.7723C128.106 38.0703 128.474 36.5753 129.21 35.2873C129.992 33.9993 131.027 32.9183 132.315 32.0443C133.649 31.1243 135.213 30.4343 137.007 29.9743C138.847 29.5143 140.825 29.2843 142.941 29.2843C145.195 29.2843 147.173 29.4453 148.875 29.7673C150.577 30.0893 152.049 30.4803 153.291 30.9403C154.579 31.4003 155.66 31.9293 156.534 32.5273C157.454 33.0793 158.236 33.5853 158.88 34.0453L155.085 40.1863C154.395 39.7723 153.59 39.3583 152.67 38.9443C151.796 38.4843 150.853 38.0703 149.841 37.7023C148.875 37.3343 147.84 37.0353 146.736 36.8053C145.678 36.5753 144.62 36.4603 143.562 36.4603C141.63 36.4603 140.066 36.7133 138.87 37.2193C137.674 37.7253 137.076 38.5073 137.076 39.5653C137.076 40.3933 137.628 41.0603 138.732 41.5663C139.882 42.0723 141.285 42.5553 142.941 43.0153C144.597 43.4293 146.414 43.8893 148.392 44.3953C150.37 44.9013 152.187 45.5683 153.843 46.3963C155.499 47.1783 156.879 48.2133 157.983 49.5013C159.133 50.7893 159.708 52.4453 159.708 54.4693C159.708 57.9653 158.42 60.7253 155.844 62.7493C153.314 64.7273 149.542 65.7163 144.528 65.7163C140.572 65.7163 137.145 65.1413 134.247 63.9913C131.395 62.7953 129.095 61.4153 127.347 59.8513L131.487 53.3653C132.085 53.8713 132.867 54.4463 133.833 55.0903C134.845 55.6883 135.972 56.2403 137.214 56.7463C138.456 57.2523 139.767 57.6893 141.147 58.0573C142.573 58.3793 143.976 58.5403 145.356 58.5403C146.828 58.5403 148.093 58.2873 149.151 57.7813C150.209 57.2753 150.738 56.4243 150.738 55.2283Z" fill="white"/>
<path d="M161.613 16.4503H175.551V34.1143H175.827C176.931 32.6423 178.403 31.4693 180.243 30.5953C182.083 29.7213 184.245 29.2843 186.729 29.2843C188.477 29.2843 190.087 29.5143 191.559 29.9743C193.031 30.4343 194.296 31.1933 195.354 32.2513C196.412 33.3093 197.24 34.7583 197.838 36.5983C198.436 38.3923 198.735 40.6233 198.735 43.2913V64.7503H189.765V45.1543C189.765 42.3483 189.167 40.3243 187.971 39.0823C186.775 37.8403 185.211 37.2193 183.279 37.2193C181.577 37.2193 180.013 37.7483 178.587 38.8063C177.161 39.8183 176.149 41.1293 175.551 42.7393V64.7503H166.581V24.0403H161.613V16.4503Z" fill="white"/>
<path d="M205.401 47.5003C205.401 44.6023 205.838 42.0263 206.712 39.7723C207.586 37.5183 208.828 35.6093 210.438 34.0453C212.048 32.4813 213.957 31.3083 216.165 30.5263C218.419 29.6983 220.926 29.2843 223.686 29.2843C226.584 29.2843 229.16 29.7213 231.414 30.5953C233.714 31.4693 235.646 32.7113 237.21 34.3213C238.774 35.8853 239.947 37.7943 240.729 40.0483C241.557 42.3023 241.971 44.7863 241.971 47.5003C241.971 50.3983 241.534 52.9743 240.66 55.2283C239.786 57.4823 238.544 59.3913 236.934 60.9553C235.324 62.5193 233.392 63.7153 231.138 64.5433C228.93 65.3253 226.446 65.7163 223.686 65.7163C220.788 65.7163 218.189 65.2793 215.889 64.4053C213.635 63.5313 211.726 62.3123 210.162 60.7483C208.598 59.1383 207.402 57.2063 206.574 54.9523C205.792 52.6983 205.401 50.2143 205.401 47.5003ZM214.647 47.5003C214.647 49.0183 214.854 50.4213 215.268 51.7093C215.682 52.9973 216.28 54.1243 217.062 55.0903C217.844 56.0563 218.787 56.8153 219.891 57.3673C220.995 57.8733 222.26 58.1263 223.686 58.1263C226.354 58.1263 228.516 57.2753 230.172 55.5733C231.874 53.8713 232.725 51.1803 232.725 47.5003C232.725 44.3263 231.943 41.7733 230.379 39.8413C228.815 37.8633 226.584 36.8743 223.686 36.8743C222.398 36.8743 221.202 37.0813 220.098 37.4953C218.994 37.8633 218.028 38.4843 217.2 39.3583C216.418 40.2323 215.797 41.3363 215.337 42.6703C214.877 44.0043 214.647 45.6143 214.647 47.5003Z" fill="white"/>
<path d="M269.958 38.5303L275.133 53.6413H275.478L276.099 47.7073L278.928 30.2503H287.001L280.032 64.7503H270.993L267.129 51.0883H266.784L262.437 64.7503H253.122L245.877 30.2503H254.847L258.228 49.3633L258.78 53.6413H259.125L264.231 38.5303H269.958Z" fill="white"/>
<path d="M310.986 16.4503H325.407V46.2583C325.407 49.7083 325.591 53.1123 325.959 56.4703C325.959 56.7003 325.982 56.9303 326.028 57.1603H330.444V64.7503H319.335L318.438 60.3343H318.162C317.702 61.1623 317.081 61.8983 316.299 62.5423C315.517 63.1863 314.643 63.7613 313.677 64.2673C312.711 64.7273 311.653 65.0723 310.503 65.3023C309.353 65.5783 308.203 65.7163 307.053 65.7163C304.891 65.7163 302.844 65.3713 300.912 64.6813C299.026 63.9913 297.37 62.9333 295.944 61.5073C294.518 60.0353 293.391 58.1953 292.563 55.9873C291.735 53.7333 291.321 51.0883 291.321 48.0523C291.321 45.1083 291.758 42.4863 292.632 40.1863C293.552 37.8863 294.794 35.9543 296.358 34.3903C297.968 32.7803 299.854 31.5613 302.016 30.7333C304.178 29.8593 306.547 29.4223 309.123 29.4223C310.549 29.4223 311.883 29.5143 313.125 29.6983C314.413 29.8363 315.517 30.0893 316.437 30.4573V24.0403H310.986V16.4503ZM309.123 58.1263C310.871 58.1263 312.412 57.7123 313.746 56.8843C315.126 56.0103 316.023 54.7683 316.437 53.1583V38.5303C315.793 38.0243 314.896 37.6563 313.746 37.4263C312.642 37.1503 311.469 37.0123 310.227 37.0123C308.985 37.0123 307.766 37.2193 306.57 37.6333C305.42 38.0473 304.385 38.7143 303.465 39.6343C302.591 40.5083 301.878 41.6583 301.326 43.0843C300.82 44.5103 300.567 46.2583 300.567 48.3283C300.567 51.2723 301.303 53.6413 302.775 55.4353C304.247 57.2293 306.363 58.1263 309.123 58.1263Z" fill="white"/>
<path d="M335.04 47.5003C335.04 44.6023 335.477 42.0263 336.351 39.7723C337.225 37.5183 338.467 35.6093 340.077 34.0453C341.687 32.4813 343.596 31.3083 345.804 30.5263C348.058 29.6983 350.565 29.2843 353.325 29.2843C356.223 29.2843 358.799 29.7213 361.053 30.5953C363.353 31.4693 365.285 32.7113 366.849 34.3213C368.413 35.8853 369.586 37.7943 370.368 40.0483C371.196 42.3023 371.61 44.7863 371.61 47.5003C371.61 50.3983 371.173 52.9743 370.299 55.2283C369.425 57.4823 368.183 59.3913 366.573 60.9553C364.963 62.5193 363.031 63.7153 360.777 64.5433C358.569 65.3253 356.085 65.7163 353.325 65.7163C350.427 65.7163 347.828 65.2793 345.528 64.4053C343.274 63.5313 341.365 62.3123 339.801 60.7483C338.237 59.1383 337.041 57.2063 336.213 54.9523C335.431 52.6983 335.04 50.2143 335.04 47.5003ZM344.286 47.5003C344.286 49.0183 344.493 50.4213 344.907 51.7093C345.321 52.9973 345.919 54.1243 346.701 55.0903C347.483 56.0563 348.426 56.8153 349.53 57.3673C350.634 57.8733 351.899 58.1263 353.325 58.1263C355.993 58.1263 358.155 57.2753 359.811 55.5733C361.513 53.8713 362.364 51.1803 362.364 47.5003C362.364 44.3263 361.582 41.7733 360.018 39.8413C358.454 37.8633 356.223 36.8743 353.325 36.8743C352.037 36.8743 350.841 37.0813 349.737 37.4953C348.633 37.8633 347.667 38.4843 346.839 39.3583C346.057 40.2323 345.436 41.3363 344.976 42.6703C344.516 44.0043 344.286 45.6143 344.286 47.5003Z" fill="white"/>
<path d="M399.597 38.5303L404.772 53.6413H405.117L405.738 47.7073L408.567 30.2503H416.64L409.671 64.7503H400.632L396.768 51.0883H396.423L392.076 64.7503H382.761L375.516 30.2503H384.486L387.867 49.3633L388.419 53.6413H388.764L393.87 38.5303H399.597Z" fill="white"/>
<path d="M422.409 30.2503H434.484L435.519 34.8043H435.795C436.853 33.3323 438.371 32.0443 440.349 30.9403C442.327 29.8363 444.696 29.2843 447.456 29.2843C449.158 29.2843 450.745 29.5143 452.217 29.9743C453.735 30.4343 455.023 31.1933 456.081 32.2513C457.139 33.3093 457.967 34.7583 458.565 36.5983C459.209 38.3923 459.531 40.6233 459.531 43.2913V64.7503H450.561V45.1543C450.561 42.3483 449.917 40.3243 448.629 39.0823C447.387 37.8403 445.8 37.2193 443.868 37.2193C442.166 37.2193 440.602 37.7253 439.176 38.7373C437.796 39.7033 436.853 40.9223 436.347 42.3943V64.7503H427.377V37.8403H422.409V30.2503Z" fill="white"/>
<path d="M469.095 60.1963C469.095 58.5863 469.601 57.3213 470.613 56.4013C471.625 55.4353 472.959 54.9523 474.615 54.9523C476.363 54.9523 477.743 55.4353 478.755 56.4013C479.767 57.3213 480.273 58.5863 480.273 60.1963C480.273 61.8063 479.767 63.0943 478.755 64.0603C477.743 65.0263 476.363 65.5093 474.615 65.5093C472.959 65.5093 471.625 65.0263 470.613 64.0603C469.601 63.0943 469.095 61.8063 469.095 60.1963Z" fill="white"/>
<path d="M512.745 55.2283C512.745 54.3083 512.17 53.5723 511.02 53.0203C509.916 52.4683 508.536 51.9623 506.88 51.5023C505.224 51.0423 503.407 50.5823 501.429 50.1223C499.451 49.6163 497.634 48.9493 495.978 48.1213C494.322 47.2473 492.919 46.1663 491.769 44.8783C490.665 43.5443 490.113 41.8423 490.113 39.7723C490.113 38.0703 490.481 36.5753 491.217 35.2873C491.999 33.9993 493.034 32.9183 494.322 32.0443C495.656 31.1243 497.22 30.4343 499.014 29.9743C500.854 29.5143 502.832 29.2843 504.948 29.2843C507.202 29.2843 509.18 29.4453 510.882 29.7673C512.584 30.0893 514.056 30.4803 515.298 30.9403C516.586 31.4003 517.667 31.9293 518.541 32.5273C519.461 33.0793 520.243 33.5853 520.887 34.0453L517.092 40.1863C516.402 39.7723 515.597 39.3583 514.677 38.9443C513.803 38.4843 512.86 38.0703 511.848 37.7023C510.882 37.3343 509.847 37.0353 508.743 36.8053C507.685 36.5753 506.627 36.4603 505.569 36.4603C503.637 36.4603 502.073 36.7133 500.877 37.2193C499.681 37.7253 499.083 38.5073 499.083 39.5653C499.083 40.3933 499.635 41.0603 500.739 41.5663C501.889 42.0723 503.292 42.5553 504.948 43.0153C506.604 43.4293 508.421 43.8893 510.399 44.3953C512.377 44.9013 514.194 45.5683 515.85 46.3963C517.506 47.1783 518.886 48.2133 519.99 49.5013C521.14 50.7893 521.715 52.4453 521.715 54.4693C521.715 57.9653 520.427 60.7253 517.851 62.7493C515.321 64.7273 511.549 65.7163 506.535 65.7163C502.579 65.7163 499.152 65.1413 496.254 63.9913C493.402 62.7953 491.102 61.4153 489.354 59.8513L493.494 53.3653C494.092 53.8713 494.874 54.4463 495.84 55.0903C496.852 55.6883 497.979 56.2403 499.221 56.7463C500.463 57.2523 501.774 57.6893 503.154 58.0573C504.58 58.3793 505.983 58.5403 507.363 58.5403C508.835 58.5403 510.1 58.2873 511.158 57.7813C512.216 57.2753 512.745 56.4243 512.745 55.2283Z" fill="white"/>
<path d="M526.38 30.2503H538.111L539.146 34.3903H539.422C541.814 30.9863 545.677 29.2843 551.013 29.2843C553.129 29.2843 555.062 29.6293 556.81 30.3193C558.604 30.9633 560.122 31.9983 561.364 33.4243C562.652 34.8503 563.641 36.6443 564.331 38.8063C565.021 40.9683 565.365 43.5673 565.365 46.6033C565.365 49.5473 564.975 52.2153 564.193 54.6073C563.411 56.9533 562.284 58.9543 560.812 60.6103C559.34 62.2663 557.546 63.5313 555.43 64.4053C553.314 65.2793 550.899 65.7163 548.185 65.7163C546.759 65.7163 545.356 65.6013 543.976 65.3713C542.596 65.1873 541.446 64.8653 540.526 64.4053V78.5503H531.555V37.8403H526.38V30.2503ZM548.323 36.8743C546.575 36.8743 544.964 37.3113 543.492 38.1853C542.066 39.0593 541.078 40.3703 540.526 42.1183V56.4703C541.17 56.9763 542.09 57.3903 543.286 57.7123C544.528 57.9883 545.77 58.1263 547.012 58.1263C548.3 58.1263 549.495 57.9193 550.599 57.5053C551.703 57.0453 552.669 56.3323 553.497 55.3663C554.325 54.4003 554.97 53.1813 555.43 51.7093C555.89 50.2373 556.12 48.4663 556.12 46.3963C556.12 43.3603 555.383 41.0143 553.911 39.3583C552.439 37.7023 550.577 36.8743 548.323 36.8743Z" fill="white"/>
<path d="M573.964 32.5963C575.804 31.7683 577.92 31.0553 580.312 30.4573C582.75 29.8593 585.625 29.5603 588.937 29.5603C591.329 29.5603 593.353 29.8593 595.009 30.4573C596.711 31.0093 598.068 31.8143 599.08 32.8723C600.138 33.9303 600.897 35.1953 601.357 36.6673C601.817 38.1393 602.047 39.7953 602.047 41.6353C602.047 43.9813 601.955 45.9823 601.771 47.6383C601.633 49.2943 601.564 50.7663 601.564 52.0543C601.564 53.0203 601.61 54.1013 601.702 55.2973C601.794 55.9413 601.863 56.5623 601.909 57.1603H606.394V64.7503H594.94L594.043 60.0583H593.698C592.778 61.4843 591.467 62.7263 589.765 63.7843C588.063 64.7963 585.763 65.3023 582.865 65.3023C579.415 65.3023 576.678 64.3823 574.654 62.5423C572.63 60.7023 571.618 58.2643 571.618 55.2283C571.618 53.2963 571.963 51.6403 572.653 50.2603C573.389 48.8343 574.424 47.6843 575.758 46.8103C577.138 45.8903 578.771 45.2233 580.657 44.8093C582.589 44.3493 584.728 44.1193 587.074 44.1193C587.902 44.1193 588.776 44.1653 589.696 44.2573C590.616 44.3493 591.743 44.4413 593.077 44.5333C593.169 44.0733 593.215 43.6133 593.215 43.1533V41.8423C593.215 40.0943 592.709 38.8523 591.697 38.1163C590.685 37.3343 589.19 36.9433 587.212 36.9433C584.866 36.9433 582.75 37.2423 580.864 37.8403C578.978 38.4383 577.391 39.0363 576.103 39.6343L573.964 32.5963ZM585.763 57.9193C587.971 57.9193 589.627 57.5283 590.731 56.7463C591.835 55.9183 592.64 55.0443 593.146 54.1243V49.9843C592.686 49.8923 591.996 49.8003 591.076 49.7083C590.156 49.5703 589.167 49.5013 588.109 49.5013C587.235 49.5013 586.361 49.5933 585.487 49.7773C584.613 49.9153 583.831 50.1683 583.141 50.5363C582.451 50.8583 581.899 51.2953 581.485 51.8473C581.071 52.3993 580.864 53.0663 580.864 53.8483C580.864 55.1363 581.232 56.1483 581.968 56.8843C582.75 57.5743 584.015 57.9193 585.763 57.9193Z" fill="white"/>
<path d="M646.111 61.4383C644.225 62.8643 642.017 63.9453 639.487 64.6813C636.957 65.3713 634.312 65.7163 631.552 65.7163C628.562 65.7163 625.894 65.2793 623.548 64.4053C621.248 63.5313 619.293 62.3123 617.683 60.7483C616.119 59.1383 614.923 57.2063 614.095 54.9523C613.267 52.6983 612.853 50.2143 612.853 47.5003C612.853 44.6023 613.336 42.0263 614.302 39.7723C615.268 37.5183 616.602 35.6093 618.304 34.0453C620.052 32.4813 622.099 31.3083 624.445 30.5263C626.791 29.6983 629.344 29.2843 632.104 29.2843C634.68 29.2843 637.095 29.5833 639.349 30.1813C641.603 30.7793 643.328 31.3543 644.524 31.9063V44.0503H636.934V37.7023C635.508 37.3803 634.082 37.2193 632.656 37.2193C631.368 37.2193 630.08 37.4263 628.792 37.8403C627.55 38.2083 626.423 38.8293 625.411 39.7033C624.445 40.5313 623.64 41.5893 622.996 42.8773C622.398 44.1653 622.099 45.7063 622.099 47.5003C622.099 48.9723 622.352 50.3293 622.858 51.5713C623.364 52.8133 624.077 53.8943 624.997 54.8143C625.917 55.7343 627.044 56.4703 628.378 57.0223C629.758 57.5283 631.276 57.7813 632.932 57.7813C635.554 57.7813 637.693 57.4133 639.349 56.6773C641.051 55.9413 642.316 55.2973 643.144 54.7453L646.111 61.4383Z" fill="white"/>
<path d="M684.586 61.0933C683.988 61.6453 683.206 62.1973 682.24 62.7493C681.32 63.2553 680.216 63.7383 678.928 64.1983C677.686 64.6583 676.306 65.0263 674.788 65.3023C673.27 65.5783 671.66 65.7163 669.958 65.7163C667.014 65.7163 664.369 65.3023 662.023 64.4743C659.723 63.6463 657.768 62.4503 656.158 60.8863C654.548 59.2763 653.306 57.3673 652.432 55.1593C651.604 52.9053 651.19 50.3523 651.19 47.5003C651.19 44.4643 651.673 41.8193 652.639 39.5653C653.605 37.2653 654.916 35.3563 656.572 33.8383C658.274 32.3203 660.252 31.1933 662.506 30.4573C664.76 29.6753 667.198 29.2843 669.82 29.2843C671.568 29.2843 673.362 29.5143 675.202 29.9743C677.088 30.4343 678.813 31.2393 680.377 32.3893C681.941 33.4933 683.206 34.9883 684.172 36.8743C685.184 38.7603 685.69 41.1523 685.69 44.0503C685.69 46.0283 685.46 48.1673 685 50.4673H660.16C660.206 51.9393 660.505 53.1813 661.057 54.1933C661.655 55.2053 662.414 56.0333 663.334 56.6773C664.3 57.3213 665.381 57.8043 666.577 58.1263C667.819 58.4023 669.13 58.5403 670.51 58.5403C673.27 58.5403 675.524 58.2183 677.272 57.5743C679.066 56.9303 680.515 56.1483 681.619 55.2283L684.586 61.0933ZM669.682 36.4603C668.486 36.4603 667.359 36.6213 666.301 36.9433C665.243 37.2653 664.277 37.7483 663.403 38.3923C662.575 38.9903 661.885 39.7493 661.333 40.6693C660.781 41.5893 660.459 42.6243 660.367 43.7743H677.341C677.341 41.5203 676.697 39.7493 675.409 38.4613C674.167 37.1273 672.258 36.4603 669.682 36.4603Z" fill="white"/>
</svg>
